<?xml version="1.0" encoding="iso-8859-1"?>
<!-- Uploaded to: SVG Repo, www.svgrepo.com, Generator: SVG Repo Mixer Tools -->
<svg fill="#000000" height="800px" width="800px" version="1.1" id="Layer_1" xmlns="http://www.w3.org/2000/svg" xmlns:xlink="http://www.w3.org/1999/xlink" 
	 viewBox="0 0 487.992 487.992" xml:space="preserve">
<g transform="translate(-1)">
	<g>
		<path d="M473.462,328.509c-7.314-3.251-21.13-8.94-40.635-14.629c-3.251-0.813-6.502-2.438-9.752-3.251
			c-12.19-4.063-24.381-7.314-37.384-11.378c-4.063-1.625-8.94-2.438-12.19-3.251c-2.438-0.813-4.064-0.813-4.876-1.625
			c-2.438-0.813-4.876,0-6.502,0.813c-4.876,3.251-10.565,5.689-17.067,7.314c-13.003,3.251-26.819,3.251-39.822,1.625
			c-3.251-0.813-5.689-0.813-6.502-1.625c-22.756-4.064-59.327-29.257-104.838-71.517c-11.378-10.565-23.568-22.756-36.571-34.946
			c-23.568-23.568-47.949-48.762-70.705-74.768c-8.127-8.94-15.441-17.067-21.943-24.381c-2.438-2.438-4.876-4.876-6.502-7.314
			c-0.813-0.813-1.625-1.625-1.625-1.625c-3.251-4.064-8.94-4.064-12.19-0.813C2.097,129.398-6.03,168.408,6.16,200.916
			c1.073,3.22,2.147,5.722,3.22,7.758c0.012,0.123,0.013,0.245,0.03,0.369c3.251,13.003,5.689,43.073,6.502,85.333
			c0.813,17.067,1.625,36.571,1.625,56.076c0,13.003,0,22.756,0,34.946c0,4.876,4.063,8.127,8.127,8.127h32.508
			c4.876,0,8.127-3.251,8.127-8.127v-90.21c0-13.003,4.063-25.194,12.19-34.133c3.848-4.618,8.434-5.591,24.095-5.681
			c0.795,1.028,1.758,2.277,2.724,3.243c4.063,4.876,8.127,10.565,13.003,16.254c13.003,16.254,26.819,33.321,39.822,48.762
			c2.438,3.251,5.689,6.502,8.127,9.752c26.006,30.883,46.324,51.2,57.702,59.327c20.317,13.816,69.892,13.003,139.784,3.251
			c23.568-3.251,48.762-8.127,72.33-13.003c8.127-1.625,16.254-3.251,22.756-4.876c2.438-0.813,8.94-3.251,10.565-4.063
			l10.565-5.689c4.064-3.251,6.502-7.314,8.127-12.19C491.341,345.576,485.652,335.011,473.462,328.509z M66.3,250.49
			c-10.565,12.19-16.254,27.632-16.254,44.698v82.083H33.792c0-8.94,0-17.067,0-26.819c0-19.505-0.813-39.01-0.813-56.889
			c-0.813-33.321-2.438-59.327-4.876-75.581c15.388,4.859,34.004,13.755,52.632,23.468c0.061,0.034,0.122,0.068,0.184,0.102
			C74.423,242.367,70.361,245.617,66.3,250.49z M471.837,352.077c-0.813,3.251-5.689,5.689-10.565,7.314l-6.502,1.625
			c-6.502,1.625-13.816,3.251-22.756,4.876c-23.568,4.876-47.949,8.94-71.517,12.19c-65.016,9.752-112.152,9.752-128.406-0.813
			c-9.752-6.502-29.257-26.819-54.451-56.076c-2.438-3.251-5.689-6.502-8.127-9.752c-13.003-15.441-26.006-31.695-39.822-47.949
			c-4.876-5.689-8.94-11.378-13.003-16.254c-0.842-1.122-1.58-2.04-2.228-2.808c-0.628-1.44-1.753-2.745-3.461-3.694
			c-0.04-0.025-0.081-0.05-0.122-0.075c-0.355-0.302-0.709-0.539-1.064-0.655c-5.403-3.334-11.026-6.636-16.763-9.838
			c-24.697-14.039-51.72-26.241-72.261-30.879c-0.813-0.813-0.813-2.438-1.625-4.063c-7.314-25.194-1.625-55.263,30.883-90.21
			c0.813,0.813,1.625,1.625,2.438,2.438c6.502,7.314,13.816,16.254,21.943,25.194c22.756,26.006,47.136,51.2,71.517,75.581
			c13.003,13.003,25.194,24.381,36.571,34.946c47.949,43.886,86.146,70.705,112.152,75.581c0.813,0,4.063,0.813,7.314,1.625
			c15.441,2.438,31.695,2.438,46.324-1.625c6.502-1.625,12.19-4.063,17.879-7.314c0,0,0.813,0,1.625,0
			c4.063,0.813,8.127,2.438,12.19,3.251c13.003,3.251,25.194,7.314,37.384,11.378c3.251,0.813,6.502,2.438,9.752,3.251
			c18.692,5.689,32.508,10.565,38.197,13.816C471.024,346.389,472.649,348.827,471.837,352.077z"/>
	</g>
</g>
</svg>