<svg width="48" height="48" viewBox="0 0 48 48" fill="none" xmlns="http://www.w3.org/2000/svg">
<path d="M29.7834 39.766L28.3737 40.0046C27.8287 40.0921 27.2265 40.0784 26.6766 40.0799L22.1094 40.081C19.624 40.0793 17.0866 39.8612 14.9878 38.3686C14.4294 37.9714 14.6181 37.5424 14.7018 36.9727L15.4965 29.9042C15.5296 29.4893 15.5065 29.3969 15.4942 28.9922L15.4009 26.9594C15.3749 26.4413 15.4419 25.8763 15.3475 25.365C15.2982 25.0983 15.3105 24.8153 15.2988 24.5445L15.2202 23.424C15.1686 23.65 15.1504 23.8819 15.1062 24.1095L13.9832 28.9652L11.5698 39.5781C11.4646 39.9527 11.4076 40.3506 10.9397 40.4127L10.9063 40.4167C10.4776 40.4724 9.89499 40.4371 9.47133 40.3414L8.70661 40.1946C8.21152 40.0851 6.29044 39.69 6.20368 39.0856L6.20035 39.0586C6.15858 38.7679 6.2378 38.4907 6.27183 38.2054L7.15111 32.5313L9.77503 18.6211L10.9298 13.622C11.0326 13.2381 11.1537 12.859 11.2321 12.4688C11.2678 12.291 11.2607 12.1068 11.2965 11.9297C11.383 11.4999 11.7651 11.562 12.0008 11.1484C12.33 10.571 13.3917 10.2633 13.9801 10.0522L15.9359 9.34506C16.7936 9.02317 17.5978 8.68014 18.3076 8.08099C18.4533 7.95799 18.5607 7.77897 18.7187 7.67388L18.7447 7.65766C18.8408 7.59611 18.9319 7.58974 19.0425 7.5782C19.557 7.6158 19.4686 7.80091 19.8098 7.9862C21.8999 9.12095 25.1984 9.18025 27.3489 8.35961C27.6377 8.24945 27.9368 8.12041 28.1885 7.93867C28.5038 7.71109 28.9985 7.32663 29.4019 7.73584C29.5045 7.83995 29.5861 7.97538 29.7016 8.06463C30.5475 8.71792 31.266 8.99374 32.2447 9.36925L33.8505 9.97595C34.4356 10.1844 35.0332 10.3693 35.5658 10.6992C35.8564 10.8793 35.9221 11.1187 36.138 11.3549C36.3287 11.5637 36.5812 11.6162 36.6486 11.9344C36.8022 12.6601 36.993 13.6084 37.2344 14.3064C37.3736 14.7091 37.4246 15.1593 37.5347 15.5726C37.6193 15.8897 37.7119 16.229 37.7694 16.5524L38.8197 21.576C38.8648 21.727 38.8748 21.8785 38.9066 22.0313L39.1342 23.1674C39.2233 23.6009 39.2716 24.0515 39.3754 24.4805C39.5735 25.2994 39.821 26.5651 39.9261 27.4221L40.2269 29.1024C40.3798 29.6335 40.3678 30.2233 40.5083 30.7573C40.599 31.102 40.6246 31.4815 40.6822 31.8345L41.3936 36.0116C41.411 36.136 41.4148 36.2752 41.446 36.3959L41.4555 36.4309C41.498 36.5918 41.5012 36.7608 41.5257 36.925L41.6204 37.5588C41.6739 37.9808 41.9795 38.8797 41.7466 39.2538C41.3384 39.9096 36.8963 41.0937 36.5233 39.9331C36.3854 39.5038 36.3086 39.0291 36.2077 38.5876L32.7642 23.6384C32.7486 23.8299 32.7045 24.014 32.6922 24.2049L32.6723 25.1464C32.6676 25.2908 32.6334 25.4296 32.6265 25.5733L32.6025 26.5471C32.5882 26.8162 32.5338 27.0753 32.5189 27.3463C32.4588 28.4345 32.472 29.5114 32.5869 30.5932L33.2265 36.5302C33.3624 37.5393 33.6978 37.9566 32.6932 38.5694C31.7855 39.1231 30.8158 39.5122 29.7834 39.766ZM28.8744 8.71652C27.3818 9.733 25.9508 9.94263 24.2206 9.94258L23.2259 9.93311C21.9546 9.85816 20.4663 9.57025 19.3728 8.9177C18.9767 8.68136 19.0719 8.81383 18.7267 9.07263C18.447 9.28234 18.1562 9.46638 17.8568 9.64647C18.2532 10.1997 18.6705 10.7405 19.1597 11.216L19.7341 11.7271C23.1967 14.4935 26.5355 13.813 29.3224 10.6641L30.1545 9.64492L28.8744 8.71652ZM31.1708 10.0898C29.4871 12.137 27.7554 14.1662 24.8856 14.4481C21.7491 14.7562 19.2815 13.1867 17.3889 10.7859C17.2232 10.5756 17.0403 10.3657 16.9163 10.1264L12.9885 11.5971C13.1656 11.771 13.3637 11.9176 13.5351 12.0963C14.9347 13.5557 15.3454 14.7716 15.8801 16.5957L15.9723 17.0103C16.1637 17.6917 16.2842 19.0062 16.1508 19.6522C16.0836 19.9774 16.0981 20.3288 16.0977 20.6593L16.1805 22.5023C16.2116 22.9394 16.2602 23.377 16.2891 23.8125L16.4168 26.5335C16.4224 26.6338 16.4497 26.7266 16.4577 26.8251L16.5308 29.8033C16.5219 30.3228 16.4566 30.8427 16.4073 31.3594L16.0024 34.944C15.9547 35.3415 15.8584 35.7464 15.8371 36.1455L15.6604 37.54C16.6684 38.2054 17.7411 38.6034 18.9371 38.8114L19.5908 38.9128C20.1297 38.9716 20.637 39.0137 21.1808 39.0151L27.6506 39.0094C27.9065 39.0003 28.3218 38.9322 28.5895 38.8994L29.1348 38.8058C30.157 38.6348 31.5218 38.1617 32.3196 37.5298L31.5047 30.1232C31.4878 29.8501 31.4399 29.5759 31.4391 29.3027L31.5259 26.5426C31.5344 26.4084 31.5631 26.2782 31.5725 26.1446L31.8861 21.9727L31.9024 20.8945C31.9117 20.1025 31.7977 19.3605 31.8046 18.6339C31.8254 16.4436 32.8763 13.6435 34.442 12.1474C34.6323 11.9655 34.8436 11.7958 35.0217 11.6028C34.6448 11.3666 34.2132 11.2143 33.7965 11.0623L32.5512 10.608C32.0896 10.4388 31.6417 10.2322 31.1708 10.0898ZM12.2772 12.3799L7.2608 38.6427C8.13146 39.0608 9.21244 39.2607 10.1657 39.3492L10.6032 39.3625C10.6837 38.6672 10.8788 37.9781 11.0365 37.2965L12.8692 29.1563L14.9666 20.2029C15.475 17.6184 14.4707 14.4198 12.5629 12.6246C12.4715 12.5386 12.3656 12.4677 12.2772 12.3799ZM35.7068 12.4591C35.4177 12.62 35.1815 12.8903 34.9622 13.1342C33.5622 14.6909 32.8759 16.8606 32.8807 18.934C32.8814 19.213 32.8727 19.4757 32.9423 19.748L34.9113 28.2207C34.9867 28.4758 35.0156 28.7504 35.0738 29.0095L35.485 30.832C35.5817 31.2186 35.6324 31.6383 35.7527 32.0176L37.4109 39.2071C37.4229 39.2665 37.4504 39.323 37.4742 39.3785L37.9034 39.3369C39.1504 39.1742 39.5994 39.0841 40.7628 38.6544L35.7068 12.4591Z" fill="black"/>
</svg>
