<svg width="24" height="42" viewBox="0 0 24 42" fill="none" xmlns="http://www.w3.org/2000/svg">
<path d="M11.4332 20.513L11.1449 25.0085L10.8603 32.7041C10.8492 32.9625 10.7996 33.2172 10.7898 33.4749L10.7613 34.6949C10.7453 34.9749 10.6953 35.2515 10.689 35.5322L10.6714 37.0808C10.6445 37.7481 10.6373 38.4946 10.3274 39.0944C9.96996 39.7863 10.3354 40.2119 10.0732 40.8657L10.0277 40.98C9.54411 42.0442 8.61786 41.9805 7.67736 41.9813L4.25286 41.9817C3.75443 41.9814 3.32721 42.0287 2.86596 41.803C2.19246 41.4734 1.82389 40.699 1.98073 39.9668C2.03951 39.6923 1.86598 39.5476 1.78273 39.2985C1.30615 37.8717 1.57404 36.3547 1.48137 34.8849L0.948496 28.5637C0.930683 28.2868 0.942683 28.0033 0.94184 27.7255L0.849121 24.2418L0.853621 16.6754C0.862106 16.4157 0.902794 16.1572 0.920559 15.8978L1.36114 11.4164C1.54362 10.1822 1.84372 9.01533 2.22795 7.82897L2.69698 6.516C2.87806 5.95636 3.26168 4.52522 3.30368 3.91814C3.32215 3.65067 3.23389 3.36422 3.22587 3.09487C3.2029 2.31942 3.35872 0.851487 3.87111 0.31594C4.18175 -0.00867893 4.46707 0.0175944 4.87676 0.0174725L19.3414 0.01534C19.8193 -0.00880062 20.1393 0.229184 20.2424 0.722252C20.3276 1.12901 20.66 2.23983 20.8508 2.64736L20.9995 2.96437C21.2736 3.53948 20.8686 3.78619 20.8754 3.99122C20.9001 4.72936 21.0536 5.54236 21.2957 6.24408C21.9094 8.02275 22.5497 9.73396 22.82 11.6028L23.2207 15.7637L23.3321 18.2521L23.3255 25.0014C23.3144 25.316 23.2536 25.6244 23.2385 25.9406L22.9247 30.9605L22.4062 37.0301L22.3923 37.9448C22.3847 38.5537 22.2701 39.1428 21.9843 39.6884C21.9921 39.7636 22.0059 39.8737 22.0454 39.9385L22.0837 39.9956C22.1087 40.05 22.0965 40.1284 22.0926 40.1861C21.9787 41.852 20.9761 41.98 19.5351 41.9814L16.1322 41.9821C15.2669 41.9819 14.3511 41.9533 13.9726 40.941L13.9118 40.7666C13.8526 40.5808 13.8734 40.3651 13.8755 40.1715L13.8866 39.3219C13.5545 38.9539 13.4144 38.595 13.4039 38.1133L13.3872 37.4811C13.3807 37.2991 13.347 37.1192 13.3384 36.937L13.2996 35.6537C13.2919 35.4724 13.2578 35.2943 13.2469 35.1131L13.0351 30.0273L12.8387 25.8242C12.8269 25.5599 12.7822 25.2974 12.7756 25.0331L12.7452 24.0524C12.7197 23.6842 12.6822 23.3255 12.6651 22.9551L12.5538 21.061C12.5236 20.5812 12.4964 20.0908 12.4635 19.6135L12.222 16.6094C12.1761 16.0419 12.2268 14.4454 12.0163 14.1441L11.9712 14.2847C11.8888 14.5288 11.8705 14.8274 11.8514 15.0842L11.7817 16.0886C11.77 16.2779 11.7328 16.4607 11.7152 16.6486L11.4971 19.6843C11.4781 19.9613 11.4406 20.2352 11.4332 20.513ZM5.15056 1.38811C5.01645 1.39442 4.86106 1.38653 4.73093 1.4143C4.65382 1.77075 4.59143 2.28961 4.58834 2.65626L18.832 2.64412C18.9216 2.64408 19.3816 2.67047 19.4231 2.63184L19.1613 1.77754C19.1261 1.65161 19.1184 1.50635 19.0653 1.3879L5.15056 1.38811ZM4.67262 4.01587C4.60451 4.14745 4.59373 4.32047 4.57147 4.46273L4.16515 6.24665C3.7752 7.63059 3.20557 8.96334 2.90787 10.3706C2.69965 11.355 2.59657 12.3657 2.48346 13.3642L2.17381 16.8996L2.12853 21.6441C2.13354 21.8348 2.16425 22.0226 2.16706 22.2149L2.17747 24.5011C2.18422 24.679 2.23217 24.8504 2.23882 25.0292L2.24656 27.5453C2.24947 28.2143 2.31101 28.8598 2.35962 29.5235L2.729 33.8407C2.74597 34.1009 2.79059 34.3537 2.79415 34.6161L2.79776 36.6947C2.80029 38.42 2.68793 38.2667 4.17495 38.2673L7.73684 38.267C8.09511 38.2667 8.45703 38.2779 8.81436 38.2503L9.29454 38.0128C9.43156 37.2952 9.37657 36.5284 9.39378 35.8006C9.39931 35.5682 9.44712 35.3439 9.4594 35.113L9.6589 30.398L9.76756 26.3316C9.77726 26.0848 9.8269 25.8407 9.83843 25.5926L9.93406 23.3634C9.95557 22.8016 10.0051 22.2672 10.03 21.7207L10.0604 20.9216L10.4987 15.4159C10.5758 14.6122 10.6878 13.0853 11.3019 12.4726C11.3502 12.1513 11.322 11.7938 11.3222 11.4683L11.3201 4.47801C11.3199 4.34006 11.3425 4.13958 11.3028 4.00945L4.67262 4.01587ZM12.6811 4.01006C12.6283 4.34958 12.6594 4.71272 12.6596 5.0557L12.656 12.4541C12.6576 12.505 12.669 12.5391 12.6984 12.5802L12.7985 12.6967C13.0116 12.9151 13.1609 13.3629 13.246 13.6519L13.2574 13.6892C13.3417 13.9712 13.3753 14.2405 13.4103 14.5308L13.5651 16.3578C13.5806 16.6358 13.5764 16.913 13.6045 17.1909L14.0368 23.2143L14.1655 26.5926C14.1747 26.7802 14.2159 26.9642 14.2239 27.152L14.2378 28.8394C14.2525 29.1649 14.3261 29.5345 14.3417 29.9131L14.3533 30.8792C14.3603 31.1327 14.4013 31.382 14.4124 31.6353L14.4524 33.1636C14.4622 33.3673 14.5026 33.5682 14.5109 33.7734L14.5393 35.2177C14.5487 35.4057 14.5964 35.5876 14.6068 35.7735L14.6368 37.4175C14.6428 37.623 14.6761 37.8248 14.6743 38.0317C15.136 38.2684 15.5384 38.2681 16.0353 38.2687L20.3298 38.2663C20.6357 38.2657 20.8003 38.2064 21.0019 37.9683L21.0257 37.9413C21.1464 37.7958 21.1124 37.5089 21.11 37.3296L21.1188 35.9616L21.6403 30.25L21.933 25.8285L22.0182 23.7971L21.9547 19.0627C21.9352 18.1368 21.9897 17.2007 21.9275 16.2769L21.8667 15.6792C21.7513 13.8003 21.6298 11.8617 21.1644 10.0288C20.8031 8.60606 20.1399 7.27697 19.8049 5.84803C19.6626 5.24095 19.6078 4.63172 19.5655 4.01147L12.6811 4.01006ZM8.44123 39.5752L3.26918 39.5876C3.27401 39.8694 3.23511 40.2558 3.35229 40.5136L3.6035 40.5436C4.13478 40.5599 8.61026 40.6018 8.71864 40.5393C8.88181 40.308 8.8377 39.8438 8.83784 39.5638L8.44123 39.5752ZM20.52 39.5726L15.1942 39.5862C15.1796 39.8872 15.194 40.2288 15.2695 40.5223C15.3398 40.5395 15.4052 40.5514 15.4772 40.5589L20.6712 40.5663C20.7051 40.2445 20.7318 39.8887 20.7127 39.5661L20.52 39.5726Z" fill="black"/>
</svg>
