<svg width="48" height="48" viewBox="0 0 48 48" fill="none" xmlns="http://www.w3.org/2000/svg">
<path d="M24.888 42.2865L20.2448 42.277L16.3941 41.9083C15.3449 41.7589 14.5276 41.6389 14.164 40.3791C14.126 40.2475 14.1711 40.0308 14.0078 40.0279L11.8072 40.0297C11.5249 40.0299 11.1736 40.0696 10.8981 40.0116C9.47216 39.7116 9.03327 38.0092 8.80621 36.7737C8.77794 36.6198 8.73791 36.4878 8.73149 36.328L8.71387 33.7044C8.71452 32.9903 8.71293 32.3093 8.78329 31.6005L8.94248 29.8937C9.3629 26.6047 10.1792 23.3571 11.0313 20.1559L11.4861 18.4612C11.5731 18.1277 11.6194 17.5415 11.8643 17.2793C12.2041 16.9154 12.0433 17.2573 12.2231 16.7137C12.7625 15.0825 14.3183 14.1788 15.9325 13.8401C15.9685 13.8326 16.2552 13.7851 16.2633 13.7735C16.2794 13.7507 16.262 12.9274 16.2649 12.8226C16.275 12.4489 16.294 12.0427 16.3442 11.6724L16.592 10.2308C16.6539 9.86753 16.7021 9.49773 16.8287 9.14941C17.732 6.6655 20.8209 5.70578 23.2226 5.61592C26.2157 5.49723 30.4868 5.95333 31.369 9.43572C31.7314 10.8662 31.8304 12.3259 31.7517 13.7971C34.145 14.3265 35.3531 15.0674 36.2083 17.5252L37.327 21.6984C37.4449 22.0352 37.5036 22.4013 37.5936 22.7464L37.7818 23.5081C37.8319 23.7036 37.8909 23.9012 37.9311 24.0988L38.3785 26.0567C38.4803 26.4666 38.551 26.8821 38.6198 27.2989L38.9537 29.0394C39.1239 29.8915 39.2719 31.0407 39.3345 31.8921C39.3801 32.5135 39.4394 33.1286 39.4409 33.7511L39.433 35.1465C39.3557 36.6748 38.9303 39.1547 37.3824 39.8944C36.9371 40.1072 36.4571 40.0279 35.9763 40.0286L33.9871 40.0299C33.9648 40.0832 33.9426 40.1358 33.9337 40.1933C33.6833 41.8211 32.1523 41.853 30.8785 41.9998L28.8471 42.2056C28.6382 42.225 28.4311 42.2649 28.2214 42.2755L24.888 42.2865ZM23.3467 6.91956C21.6693 6.96864 19.2351 7.55833 18.305 9.02636L18.2556 9.11748C18.1607 9.29547 18.0842 9.46464 18.0176 9.65533C19.1315 10.5661 21.1155 10.6912 22.4995 10.5813L22.6152 10.5282C22.8726 10.1681 23.2799 10.2308 23.6634 10.231L24.7471 10.2331L24.7863 10.2388C25.2927 10.2478 25.3089 10.6106 25.6672 10.5997L26.1473 10.593C27.5413 10.59 28.8739 10.4193 30.0615 9.6355C29.5007 7.35217 26.3337 6.91323 24.3158 6.91558L23.3467 6.91956ZM30.336 10.9841C29.6394 11.3849 28.9468 11.5975 28.1543 11.7509L27.4573 11.8607C27.2654 11.8969 27.0644 11.8868 26.8698 11.8873L26.0017 11.8882C25.2097 11.8877 25.3249 11.9446 24.6205 11.6086L24.6231 37.174C24.6216 37.3111 24.597 37.4715 24.6301 37.6041L27.0749 37.6061C27.9026 37.6048 28.7228 37.5749 29.5464 37.4886L31.3907 37.2422C31.6558 37.2058 31.9833 37.2007 32.2329 37.1103C32.889 36.8727 32.3694 35.7903 32.2029 35.4144L31.8399 34.5294C31.4809 33.509 31.371 32.4789 31.2222 31.4167C31.1631 30.9955 31.0499 30.5896 30.9721 30.1732C30.5111 27.7056 31.5092 26.307 32.1066 24.1046L32.9351 20.7124C33.2281 19.4775 33.4683 17.9192 34.5519 17.1005L34.5745 17.0837C34.3601 16.4241 33.8462 15.9393 33.242 15.6284L33.0934 15.5615C32.4155 15.2706 31.8341 15.2227 31.1832 14.9956C31.051 14.9495 30.8321 14.992 30.69 15.0029C29.4982 15.0942 28.2623 15.4254 27.2657 16.1095C27.0915 16.2291 26.9257 16.4228 26.7301 16.4995C26.1843 16.7134 25.7481 16.0712 25.9655 15.5744C26.0722 15.3307 26.3427 15.2001 26.5563 15.0589C27.9719 14.1233 28.866 13.8971 30.4649 13.7104C30.5119 12.8157 30.5261 11.8638 30.336 10.9841ZM17.7369 11.0205C17.7075 11.1458 17.6773 11.2688 17.6638 11.3971L17.5363 12.4898C17.5072 12.8876 17.5277 13.3069 17.5327 13.7061L18.4506 13.8187C19.282 13.9592 21.7437 14.7874 22.1255 15.6448L22.1382 15.6724C22.3645 16.1874 21.6951 16.6839 21.2234 16.4407C21.0247 16.3383 20.8525 16.1591 20.6598 16.0382C19.9307 15.5806 19.1442 15.2622 18.2926 15.1174C17.8114 15.0355 17.3063 15.0714 16.8331 14.9771C16.7339 14.9573 16.5983 15.0312 16.4985 15.0533C15.3771 15.3014 13.9596 15.7266 13.5341 16.9339L13.4759 17.0965C14.3474 17.9216 14.4674 18.367 14.8518 19.5182L16.2284 25.3523C16.3491 25.7825 16.5851 26.1839 16.7103 26.6136L16.8993 27.2508C17.1117 27.874 17.1942 28.9122 17.0896 29.5508L16.7399 31.8977C16.6305 32.7276 16.4424 33.6421 16.1104 34.4132C15.7339 35.206 15.1013 36.1827 15.687 37.0334C16.4251 37.3322 19.5328 37.5644 20.3324 37.5983L22.842 37.6079C23.0117 37.608 23.1896 37.6191 23.3579 37.598L23.3497 12.3827C23.3499 12.1496 23.374 11.8853 23.344 11.656L23.3281 11.6705C22.9634 11.9977 22.5086 11.8884 22.0538 11.8886C20.549 11.8892 19.0743 11.7916 17.7369 11.0205ZM12.8424 18.3401C12.5978 19.5344 12.2005 20.697 11.9076 21.8792L10.5945 27.6917L9.99805 32.2825L9.98887 35.4818C10.0056 36.2222 10.1085 36.9021 10.3212 37.6178L10.4152 37.8522C10.5183 38.1242 10.7129 38.4261 10.9461 38.5967L10.9747 38.6182C11.2689 38.8366 11.7489 38.7296 12.0947 38.7298L14.068 38.7311L14.2418 38.7057C14.2832 38.4516 14.5188 37.8993 14.5074 37.6935C14.5002 37.5632 14.3678 37.3386 14.3209 37.2069C13.793 35.7227 14.4614 35.0209 14.9554 33.8382C15.221 33.2025 15.3376 32.4756 15.4099 31.7939C14.0804 31.1784 13.5624 29.4268 13.9303 28.084C14.1001 27.4638 14.6236 26.2915 15.0091 25.7431C14.8445 25.2625 14.7029 24.7712 14.594 24.2749L14.1839 22.3362C13.963 21.2064 13.6891 19.2321 12.8808 18.343L12.8424 18.3401ZM35.138 18.2983C34.4574 19.1678 34.2423 20.7467 33.9999 21.7963L33.0661 25.421C32.9786 25.7895 33.0356 25.7879 33.1871 26.1448L33.4859 26.8413C33.7709 27.4525 33.9967 28.0704 34.1548 28.7244C34.4245 29.8403 33.5897 31.4874 32.5947 31.9571C32.652 32.459 32.758 33.3929 32.9438 33.8641L33.0956 34.3133C33.1547 34.5036 33.2763 34.7089 33.3671 34.887C33.8294 35.7935 34.0204 36.4813 33.6434 37.4317C33.5198 37.7432 33.6716 38.3176 33.7987 38.6124L33.8368 38.7201L34.291 38.7298L36.0142 38.73C36.3006 38.7297 36.7263 38.8212 36.9723 38.6482L37.0049 38.6263C37.5543 38.248 37.9006 36.9893 38.0063 36.3837C38.0781 35.9726 38.1493 35.5379 38.164 35.1214L38.176 34.1134C38.1759 32.7285 38.0139 31.3451 37.8106 29.9769L37.0177 25.6761L35.138 18.2983ZM15.5852 27.4408C15.2317 28.1336 14.9464 28.8705 15.1947 29.6476L15.2466 29.7918C15.3043 29.9529 15.4066 30.1127 15.5119 30.2477L15.6518 30.3519C15.7384 29.7952 15.9014 29.2574 15.8483 28.6878L15.7263 27.8693C15.6963 27.7178 15.6275 27.5873 15.5852 27.4408ZM32.3048 27.4937C32.0601 28.3556 31.9832 29.6906 32.3879 30.5195L32.5465 30.2957C33.1019 29.259 32.9028 28.4359 32.3048 27.4937ZM15.6464 38.3855C15.6103 38.5814 15.5852 38.7857 15.528 38.9763L15.3685 39.4428C15.2804 39.679 15.3255 39.7932 15.4238 40.0315L15.4363 40.0629C15.5137 40.2543 15.6171 40.3751 15.7774 40.5001L18.8316 40.8789L20.5375 40.9809L22.9859 40.9874L23.3474 40.9899L23.3467 38.9026L19.3238 38.8128C18.0944 38.7258 16.8598 38.6067 15.6464 38.3855ZM32.3802 38.4026C31.0026 38.7037 28.9551 38.89 27.5785 38.8937L25.6126 38.8958C25.2873 38.896 24.94 38.8712 24.6171 38.906L24.615 40.9909L24.8844 40.9899L27.6764 40.9792C27.8781 40.9707 28.0765 40.9333 28.2777 40.9197L31.4858 40.6143C32.3091 40.5304 32.5331 40.4792 32.7513 39.6409C32.7805 39.5288 32.6862 39.3858 32.6471 39.2815C32.5404 38.9967 32.4935 38.6978 32.4529 38.3979L32.3802 38.4026Z" fill="black"/>
</svg>
