<svg width="48" height="48" viewBox="0 0 48 48" fill="none" xmlns="http://www.w3.org/2000/svg">
<path d="M19.9194 41.3651L18.1136 41.255C16.6657 41.1227 13.27 40.5859 12.6543 38.9685L12.6394 38.928C12.5114 38.5937 12.632 38.2249 12.6501 37.8817L12.6638 36.8057C12.6684 36.4232 12.7339 35.9565 12.7812 35.5699C12.9425 34.2513 13.195 32.9502 13.6163 31.6878C13.8795 30.8992 14.1525 30.4551 14.1541 29.6097L14.1484 26.0464L13.8938 22.5018C13.5459 22.9384 12.372 24.5911 11.8592 24.6565C11.4757 24.7054 11.164 24.451 10.8488 24.2697L8.81892 22.9661C8.06292 22.4292 6.85777 21.4199 6.45141 20.5759C5.96724 19.5701 6.21736 18.9243 6.783 18.1041L9.89503 13.6033C10.877 12.2834 11.9479 11.1902 13.6387 10.9056L15.9608 10.591C16.3653 10.5189 16.4778 10.4999 16.6327 10.1624L17.7554 8.05699C17.8833 7.82824 17.9926 7.58112 18.1462 7.36816L18.278 7.19487C18.9167 6.48115 19.6924 6.52455 20.56 6.56398L21.6503 6.59023C21.9736 6.6064 22.2921 6.65224 22.617 6.65566L25.4851 6.65098L28.0845 6.50294C29.167 6.42157 29.6851 7.07585 30.1327 7.89415L31.2252 9.91146C31.3046 10.0679 31.3891 10.1993 31.4325 10.3734L31.4382 10.397C31.7612 10.514 32.075 10.5695 32.4104 10.6329L33.9725 10.8598C36.6087 11.1875 37.5235 12.7969 38.963 14.814L41.3691 18.3635C41.8345 19.1089 41.9527 19.9091 41.4783 20.7123C40.8809 21.7241 39.3149 22.9167 38.3386 23.5611L37.0199 24.3587C35.8669 24.9949 35.7138 24.4411 34.9405 23.5438C34.6491 23.2058 34.3267 22.8577 34.0869 22.4816L34.0704 22.4554C34.0329 22.5729 34.0362 22.7233 34.0311 22.8459L33.9125 24.7971C33.894 25.0246 33.8554 25.2503 33.8466 25.4792L33.8424 29.466C33.8431 29.7925 33.8535 30.139 33.9624 30.4516L34.1535 31.0775C34.4329 31.7747 34.6636 32.5559 34.8269 33.2855L35.1092 34.7346C35.2053 35.3625 35.2712 36.0266 35.3083 36.6622L35.3468 37.7704C35.3698 38.1409 35.5151 38.5938 35.3694 38.9512L35.3594 38.9751C34.7577 40.4379 31.6986 41.0674 30.3231 41.2194L27.0157 41.4174L21.7245 41.4177C21.5333 41.4146 21.3472 41.3858 21.1571 41.3777L19.9194 41.3651ZM19.6295 7.85693C20.2543 8.8518 19.8613 8.71845 20.8709 8.92816C21.8567 9.13291 22.5789 9.20843 23.5752 9.21373L25.0791 9.19948C25.6533 9.16779 27.6697 8.95605 27.8447 8.6913L27.8633 8.66126C28.0201 8.41254 28.1243 8.08198 28.2978 7.85548L19.6295 7.85693ZM18.7256 8.94166L17.7717 10.8004C17.97 11.2597 18.1102 11.7416 18.2804 12.2112L18.7974 13.5354C19.2232 14.6086 19.5252 14.9038 20.7332 14.5199C20.9378 14.4549 21.1521 14.3548 21.3395 14.2506C21.8578 13.9821 22.2873 13.6311 22.7743 13.3175C22.5107 13.1271 22.2133 12.991 21.9448 12.8023C20.7385 11.9548 19.708 10.8138 19.0233 9.5036L18.772 8.98854C18.7579 8.96252 18.7541 8.94616 18.7256 8.94166ZM29.1825 8.92001C28.2389 10.8332 27.1474 12.3669 25.1574 13.3307C25.5981 13.7024 26.1584 14.0273 26.678 14.275C28.2247 14.9824 28.3508 14.8059 29.105 13.3596L30.2346 10.825L29.5903 9.62168C29.46 9.38055 29.3456 9.14173 29.1825 8.92001ZM21.122 10.3131C22.1204 11.3596 22.9278 11.7476 23.9925 12.5451C24.5926 12.1363 25.2848 11.7759 25.8147 11.2781L26.7908 10.3578L25.2536 10.5667C24.6357 10.6196 22.8372 10.6315 22.2984 10.5305L21.122 10.3131ZM31.3311 11.7469L30.0735 14.344C29.2094 15.9703 28.4822 16.345 26.739 15.7111C25.9477 15.4234 25.2994 15.0693 24.6325 14.5483L24.6211 40.0512L27.1656 40.0398C27.4358 40.0282 27.7029 39.9739 27.9736 39.9619L28.9036 39.943C30.4186 39.8711 32.9188 39.6471 33.9838 38.6135L34.0992 38.4834L34.0373 37.5178C34.0173 35.9357 33.8179 34.3586 33.3631 32.838C32.9969 31.6135 32.5505 30.8164 32.5478 29.5111L32.5523 25.1196C32.5883 24.0648 32.71 22.7757 32.8757 21.7503C32.9261 21.4386 32.9406 21.1176 33.0303 20.8131C33.1699 20.3388 33.755 19.9494 34.1542 20.3786C34.3058 20.5416 34.4232 20.7528 34.5622 20.9289C35.1578 21.6841 35.7187 22.4849 36.392 23.1736C37.6296 22.522 38.805 21.6763 39.7944 20.6883C40.9693 19.5152 40.2896 19.1466 39.5551 18.0293L37.8857 15.5979C37.4303 14.9366 36.9825 14.2881 36.4585 13.6775C34.6585 11.5803 33.5041 12.4581 31.3311 11.7469ZM16.6928 11.7776L15.2206 12.051C12.4308 12.4281 12.2179 12.5645 10.478 15.0529L8.15621 18.4467C7.88316 18.8418 7.48069 19.243 7.56202 19.7581L7.56802 19.7976C7.70185 20.5716 9.75596 22.0241 10.4139 22.4687L11.6163 23.1792C12.294 22.507 12.8293 21.6742 13.4204 20.9263C13.7445 20.5161 14.1487 19.8064 14.736 20.4154C14.9183 20.6045 14.9652 20.9088 15.0115 21.1561L15.3335 23.6893L15.437 25.6731L15.445 29.8511C15.4431 30.2796 15.3668 30.6807 15.2219 31.0877C14.387 33.4317 14.0438 35.0774 13.9405 37.5326L13.9381 38.1059C13.9124 38.5873 13.8884 38.5428 14.278 38.8284C15.2813 39.5639 16.6549 39.7353 17.8592 39.8419L21.0012 40.0387L23.0362 40.0516C23.15 40.0541 23.2761 40.0759 23.3876 40.0617L23.354 14.5151C22.6748 15.243 21.2107 15.8288 20.253 15.994C18.814 16.2421 18.099 15.2412 17.6201 14.1096L16.768 11.8474C16.7451 11.7862 16.7556 11.7919 16.6928 11.7776Z" fill="black"/>
</svg>
