<svg width="48" height="48" viewBox="0 0 48 48" fill="none" xmlns="http://www.w3.org/2000/svg">
<path d="M27.6794 40.4774C26.7884 40.4018 26.4117 40.1386 26.2427 39.3275L25.2802 35.4911L24.2424 31.8144C24.1964 31.6609 24.1371 31.5116 24.1043 31.3545L21.8735 39.0111C21.8023 39.2693 21.7757 39.583 21.6542 39.8197C21.0042 41.0854 18.3741 40.1195 17.3545 39.8931L6.89752 37.5371C5.63382 37.2987 4.34897 36.9032 3.9301 35.4961C3.79834 35.0535 3.9416 34.7748 4.07853 34.3659L8.02763 21.7681L10.0658 14.9186C10.4687 13.4502 10.5219 13.2868 10.5213 11.8L10.5217 8.58641C10.5223 8.0502 10.5991 7.69672 11.1744 7.5253L35.6221 7.5171C36.8661 7.51705 37.4744 7.27217 37.4766 8.89475L37.4776 12.8466C37.4789 13.536 37.8047 14.5487 37.9997 15.2044L40.8587 24.5816C40.8678 24.6256 40.8735 24.6627 40.8898 24.7048L41.0463 25.2097C41.0555 25.2461 41.0644 25.2799 41.0779 25.3151L43.9857 34.5106C44.1605 34.9023 44.1166 35.3509 43.9708 35.7416L43.9019 35.903C43.3306 37.0557 42.0887 37.2111 40.969 37.4362L30.1495 40.0408C29.3115 40.2432 28.5474 40.4863 27.6794 40.4774ZM11.9782 8.9832L11.9801 10.5071C12.1484 10.5365 12.3414 10.5176 12.5139 10.5176L13.5504 10.517L13.5245 8.98349L11.9782 8.9832ZM14.9857 8.98166L14.9818 10.515L20.3685 10.5188C20.3217 10.3921 19.7763 9.07414 19.7007 8.98086L14.9857 8.98166ZM21.3436 8.98091L21.2624 9.00214C21.2828 9.1228 21.3663 9.25452 21.4183 9.36678L21.7893 10.152C22.0005 10.6069 21.8558 10.5172 22.3984 10.517L26.1751 10.5158C26.1964 10.453 26.2208 10.3903 26.2343 10.3253L26.5586 9.00003C26.3732 8.96652 26.1669 8.98091 25.9782 8.98081L21.3436 8.98091ZM28.0609 8.98091C27.9942 9.14239 27.9613 9.32188 27.9138 9.48444L27.6405 10.5056L32.6463 10.5165L33.0134 10.5167L33.0184 9.45355C33.0182 9.31522 33.042 9.11956 33.0047 8.98822L28.0609 8.98091ZM34.4311 8.9833C34.3856 9.4663 34.3915 10.0314 34.4373 10.5114L36.0223 10.5194L36.0188 8.98485L34.4311 8.9833ZM12.102 11.9807L11.9845 11.996C11.9625 12.6847 11.961 13.0085 11.8279 13.6788L10.9593 16.961L5.9072 33.2806C5.71032 33.8965 5.53585 34.5397 5.28324 35.1353C5.96799 36.204 7.24726 36.1472 8.43287 36.402L17.1181 38.3803C18.2686 38.6365 19.2426 38.9545 20.4294 39.0236L23.0228 29.8359C23.2669 28.9395 23.3133 28.9798 23.2749 28.0865L23.2675 21.0826C23.2676 20.8365 23.2557 20.5835 23.2829 20.339L23.2872 20.2978C23.3783 19.5804 24.434 19.42 24.6768 20.273L24.6968 20.3324C24.745 20.4941 24.7257 20.7095 24.726 20.8779L24.7263 27.7851C24.7269 28.2256 24.7099 28.4216 24.8439 28.8392L25.4546 30.8666C25.5431 31.1233 25.6434 31.4257 25.6956 31.6925L27.6316 39.0182C28.8114 38.9804 29.5868 38.6926 30.7217 38.43L40.7919 36.0167C41.3331 35.9136 42.878 35.7976 42.6294 34.9167L37.9754 20.1394L36.3127 14.4098C36.1953 13.9366 36.0627 13.4064 36.0281 12.9174C36.0074 12.6234 36.0665 12.2666 36.0057 11.9834L27.826 11.9856L28.3972 15.0064C28.4919 15.4832 28.4863 16.1928 28.4264 16.6634C28.2785 17.8248 27.2754 18.8462 26.0511 18.7191C25.4996 18.6619 24.805 18.4023 24.4513 17.9606L24.426 17.9278C24.0514 17.4491 24.0237 16.9179 24.0229 16.3424L24.0219 11.9844L23.0289 11.9805C22.8827 11.9806 22.6944 11.959 22.5537 11.993L22.8937 13.0892C23.1311 13.864 23.1821 14.539 23.2163 15.3365L23.2256 17.78C23.2255 17.9243 23.2442 18.112 23.1809 18.2439C22.7853 19.0672 21.8724 18.6685 21.7807 18.1385C21.7356 17.878 21.7699 17.5551 21.7699 17.2892L21.7695 15.2624C21.7691 14.747 21.7915 14.3144 21.6511 13.8171L21.1065 12.2334C21.0741 12.1415 21.0654 12.0482 20.9902 11.9808L12.102 11.9807ZM25.4763 11.9825L25.4769 16.2342C25.4758 16.4727 25.4045 16.7619 25.5299 16.9798L25.5464 17.0099C25.7908 17.4329 26.4444 17.3479 26.757 17.0646C27.1301 16.6138 27.0586 15.7199 27.0024 15.1481C26.9676 14.793 26.5075 12.1959 26.3326 11.9823L25.4763 11.9825Z" fill="black"/>
</svg>
