<svg width="48" height="48" viewBox="0 0 48 48" fill="none" xmlns="http://www.w3.org/2000/svg">
<path d="M18.9959 38.9818L15.8603 38.9804C15.0833 38.964 15.0736 38.1618 14.9991 37.5793L14.3443 33.6447C13.9806 31.6952 13.7818 29.9629 14.0596 27.9611L14.5716 24.9611C14.6401 24.5597 14.7087 24.1609 14.7243 23.7533C14.5815 23.9923 14.4774 24.2437 14.3599 24.4947L12.2589 29.0992L10.6882 33.3752C10.6026 33.6375 10.5547 33.9095 10.442 34.1625C10.1146 34.8972 9.28359 36.4894 8.45512 36.7932L8.27644 36.8557C7.31705 37.179 6.24487 36.4472 5.3842 36.0774C4.89965 35.8692 4.3064 35.7515 4.00379 35.283L3.98287 35.2502C3.92803 35.1654 3.88378 35.0881 3.84928 34.9927L3.83503 34.9526C3.52648 34.1205 4.4682 32.058 5.03039 31.4975C5.37033 31.1586 5.28712 31.3043 5.38865 30.8205L6.04655 28.1366L8.48962 19.8752C9.52205 16.89 11.0545 12.5001 14.3936 11.586C15.5488 11.2698 17.7236 11.2924 18.1477 9.94514C18.6877 8.22942 21.4169 9.42914 22.5809 9.65991C23.9512 9.93159 25.3292 9.70875 26.6625 9.36211C27.2302 9.21459 27.7982 9.03605 28.3875 9.01059C29.1026 8.95973 29.6373 9.32095 29.8489 9.9848C30.0959 10.76 30.8841 11.0198 31.5746 11.1862L33.2059 11.504C35.3745 11.9942 36.4832 13.2707 37.5007 15.1057L38.2857 16.6776C38.4773 17.0967 38.6865 17.5355 38.8243 17.9752L39.1871 18.926L40.7018 23.5848L41.4252 26.1362C41.4455 26.2473 41.4908 26.3498 41.5127 26.4611L41.7998 27.5864C41.8385 27.8133 41.9352 28.0354 41.9827 28.265L42.5975 30.836C42.7692 31.6623 42.7435 31.1503 43.1789 31.7758C43.5318 32.2829 43.7466 32.8162 43.9697 33.3869L44.1575 33.9846C44.2477 34.2577 44.2711 34.5203 44.2005 34.8026L44.1912 34.8384C44.0101 35.5499 43.4385 35.7174 42.8342 35.9889L41.6064 36.5365C40.8645 36.8602 39.9701 37.2446 39.2404 36.658L39.2108 36.6338C38.7104 36.2422 37.8877 34.959 37.5794 34.3097C37.3419 33.8097 37.2082 33.2347 37.042 32.7061L36.2915 30.4971L35.1295 27.6081L33.2875 23.7076C33.3267 24.3288 33.4201 24.8659 33.5208 25.482L33.656 26.3439C33.907 27.5748 34.0619 28.2922 34.0773 29.5449L34.075 31.0432C34.0678 31.2221 34.036 31.4018 34.0149 31.5796L33.1569 36.6025C33.072 37.1357 32.9573 37.6835 32.9149 38.2211C32.8348 39.2357 31.6614 38.9815 30.9644 38.9817L18.9959 38.9818ZM19.6149 10.482C19.4685 10.5187 19.3755 10.6116 19.4289 10.7697C19.9767 12.3922 22.5337 12.7731 24.0651 12.7719C25.3992 12.771 26.8426 12.4521 27.8877 11.5786C28.1138 11.3732 28.4796 11.0053 28.5 10.676L28.4923 10.5248C28.2626 10.3376 26.9295 10.7968 26.6248 10.8752C24.5857 11.4003 23.0983 11.3194 21.1059 10.7984C20.6217 10.6717 20.118 10.501 19.6149 10.482ZM18.2573 11.9416L18.2338 11.9823C18.1474 12.1263 17.9847 12.2394 17.8547 12.3435C18.0911 13.0709 18.7319 13.6627 19.3184 14.1172C21.9219 16.1348 24.7275 16.4641 27.6092 14.8644C28.2936 14.4845 28.9058 14.0175 29.4342 13.4389C29.7062 13.0966 29.9987 12.716 30.024 12.2624C29.8703 12.142 29.7123 12.0256 29.5382 11.9367C28.6443 13.1425 26.9085 13.9192 25.426 14.1368L24.9658 14.2042C24.5536 14.285 23.2424 14.2582 22.8597 14.1869L22.2295 14.0897C20.7365 13.7937 19.5722 13.321 18.5138 12.1744C18.4627 12.1191 18.3247 11.9402 18.2573 11.9416ZM16.3505 12.66L14.7199 13.007C15.8115 15.2715 16.3653 18.4764 16.3726 21.0263L16.3698 22.3189C16.3436 23.2605 16.1662 24.707 15.9908 25.6329C15.55 27.9617 15.1025 29.9482 15.6104 32.3557C15.6462 32.5253 15.6372 32.8942 15.7474 33.0175L32.2877 33.0224C32.5069 31.9321 32.6389 30.9005 32.6179 29.7916C32.6152 29.6477 32.5811 29.4368 32.621 29.301L31.6424 22.3965C31.5747 22.0993 31.6135 21.7318 31.6133 21.4241C31.6118 19.1907 31.958 16.8699 32.585 14.7204C32.7557 14.1352 33.0349 13.6047 33.24 13.0363L31.4878 12.6452L31.4211 12.8786C30.8772 15.0267 27.8715 16.6101 25.8437 17.1011L24.9117 17.2929C24.5574 17.3751 23.6113 17.3566 23.2366 17.312C20.8914 17.0321 17.2411 15.2602 16.4768 12.7736C16.4459 12.6729 16.4631 12.6377 16.3505 12.66ZM34.5678 13.7044C33.805 15.0527 33.3909 17.7493 33.1929 19.2507C33.1511 19.5672 33.1478 19.887 33.0999 20.204L34.5511 22.9523L36.2378 26.508C36.4142 26.9029 36.6289 27.2957 36.7781 27.7005L37.4345 29.3663L38.4422 32.3337C38.4861 32.5127 38.5467 32.6925 38.6238 32.8595L39.4343 32.4587L41.2719 31.6284L40.5053 28.3603L39.1144 23.424C38.4349 21.17 37.7185 18.9341 36.7132 16.8003C36.1013 15.5017 35.6471 14.6466 34.5678 13.7044ZM13.3826 13.7463C11.5953 14.8837 9.78942 20.5456 9.1785 22.4955L8.57278 24.5275C8.33315 25.3356 8.0602 26.1548 7.87312 26.9765L6.99834 30.3925C6.89976 30.7983 6.75328 31.2249 6.705 31.6389L8.60151 32.4626L9.35531 32.8104C9.45858 32.3505 9.62522 31.9198 9.78745 31.4787L11.2872 27.6091L13.53 22.8013L14.6834 20.6703C15.0276 20.0618 14.9177 20.2194 14.8395 19.5195C14.649 17.8149 14.3653 16.0899 13.7546 14.4786C13.6785 14.2777 13.5916 13.8786 13.4267 13.7402L13.3826 13.7463ZM5.84114 32.8497L5.19572 34.3841C5.32636 34.4997 5.55103 34.5621 5.71031 34.6343L7.80726 35.5245C7.86717 35.4658 7.93875 35.4066 7.98642 35.3375L8.53397 34.5789C8.62612 34.4446 8.73267 34.3125 8.80144 34.1644L5.84114 32.8497ZM42.1176 32.8947L39.2151 34.183C39.4449 34.614 39.7766 35.0203 40.054 35.4226C40.2116 35.5863 40.2622 35.4993 40.462 35.427C41.2617 35.1372 42.0127 34.6986 42.8177 34.431L42.4568 33.4881C42.378 33.289 42.3075 33.0645 42.1847 32.8886L42.1176 32.8947ZM16.0052 34.4835L16.3602 36.715C16.4026 36.9786 16.3942 37.2597 16.4679 37.5166L31.5471 37.5198C31.5838 37.3693 31.588 37.2106 31.5995 37.0563L31.9827 34.4996C31.7403 34.4721 31.4947 34.482 31.2511 34.4818L16.0052 34.4835Z" fill="black"/>
</svg>
