<?xml version="1.0" encoding="iso-8859-1"?>
<!-- Uploaded to: SVG Repo, www.svgrepo.com, Generator: SVG Repo Mixer Tools -->
<svg fill="#000000" height="800px" width="800px" version="1.1" id="Layer_1" xmlns="http://www.w3.org/2000/svg" xmlns:xlink="http://www.w3.org/1999/xlink" 
	 viewBox="0 0 512 512" xml:space="preserve">
<g>
	<g>
		<path d="M443.733,0H68.267c-4.713,0-8.533,3.817-8.533,8.533v443.733c0,4.717,3.821,8.533,8.533,8.533H76.8v42.667
			c0,4.717,3.821,8.533,8.533,8.533H153.6c4.713,0,8.533-3.817,8.533-8.533V460.8h85.333h17.067h85.333v42.667
			c0,4.717,3.821,8.533,8.533,8.533h68.267c4.713,0,8.533-3.817,8.533-8.533V460.8h8.533c4.713,0,8.533-3.817,8.533-8.533V8.533
			C452.267,3.817,448.446,0,443.733,0z M145.067,494.933h-51.2V460.8h51.2V494.933z M247.467,443.733H153.6H85.333H76.8V17.067
			h170.667V443.733z M418.133,494.933h-51.2V460.8h51.2V494.933z M435.2,443.733h-8.533H358.4h-93.867V17.067H435.2V443.733z"/>
	</g>
</g>
<g>
	<g>
		<path d="M221.867,213.333h-34.133c-4.713,0-8.533,3.817-8.533,8.533v25.6c0,4.717,3.821,8.533,8.533,8.533
			s8.533-3.817,8.533-8.533V230.4h25.6c4.713,0,8.533-3.817,8.533-8.533C230.4,217.15,226.579,213.333,221.867,213.333z"/>
	</g>
</g>
<g>
	<g>
		<path d="M324.267,213.333h-34.133c-4.713,0-8.533,3.817-8.533,8.533c0,4.717,3.821,8.533,8.533,8.533h25.6v17.067
			c0,4.717,3.821,8.533,8.533,8.533s8.533-3.817,8.533-8.533v-25.6C332.8,217.15,328.979,213.333,324.267,213.333z"/>
	</g>
</g>
</svg>