<?xml version="1.0" encoding="iso-8859-1"?>
<!-- Uploaded to: SVG Repo, www.svgrepo.com, Generator: SVG Repo Mixer Tools -->
<svg fill="#000000" height="800px" width="800px" version="1.1" id="Layer_1" xmlns="http://www.w3.org/2000/svg" xmlns:xlink="http://www.w3.org/1999/xlink" 
	 viewBox="0 0 512 512" xml:space="preserve">
<g>
	<g>
		<path d="M474.64,452.257c-0.013-0.174-0.028-0.347-0.034-0.52c-0.005-0.107-0.011-0.214-0.019-0.322
			c-1.681-22.876-11.899-44.096-28.767-59.754c-16.822-15.613-38.739-24.293-61.713-24.44c-46.359-0.293-77.93-14.611-93.826-42.541
			c-2.061-3.629-4.034-7.375-6.03-11.439c-18.187-37.187-27.774-84.241-28.493-139.868c-0.158-11.247,0.065-22.981,0.661-34.89
			c0.787-16.21,2.27-33.165,4.41-50.399c1.424-11.518,3.156-23.315,5.15-35.063c2.375-13.999,5.142-28.165,8.224-42.104
			c0.587-2.658-0.062-5.438-1.767-7.561C270.728,1.234,268.154,0,265.433,0H44.854c-4.929,0-8.938,3.974-8.98,8.903
			c-0.115,13.436,0.024,27.853,0.411,42.846c0.293,11.428,0.734,23.425,1.312,35.654c0.745,15.886,1.719,32.65,2.979,51.245
			c0.86,12.824,1.823,25.725,2.569,35.536c1.43,18.696,2.979,37.654,4.478,55.988l0.929,11.388c0.403,4.942,4.739,8.63,9.68,8.221
			c4.942-0.402,8.623-4.737,8.221-9.679l-0.93-11.392c-1.239-15.157-2.51-30.735-3.72-46.229h176.203
			c1.542,51.514,10.68,95.993,27.216,132.457c-11.219,10.357-21.122,21.885-29.491,34.352c-2.766,4.117-1.668,9.697,2.45,12.46
			c1.536,1.031,3.276,1.525,4.997,1.525c2.891,0,5.73-1.395,7.463-3.976c6.638-9.887,14.352-19.127,22.999-27.583
			c0.34,0.614,0.679,1.231,1.025,1.839c19.306,33.921,56.09,51.29,109.328,51.627c18.471,0.119,36.09,7.095,49.611,19.644
			c11.361,10.545,18.94,24.233,21.884,39.203h-38.372c-4.96,0-8.98,4.021-8.98,8.98c0,4.959,4.019,8.98,8.98,8.98h40.108
			c0.456,9.667,0.779,22.23,0.916,32.052H280.283l-60.465-31.237c0.006-0.271,0.006-0.545,0.013-0.814h163.16
			c4.96,0,8.98-4.021,8.98-8.98c0-4.959-4.019-8.98-8.98-8.98H220.988c1.983-19.19,6.404-37.266,13.197-53.842
			c1.88-4.589-0.316-9.833-4.905-11.714c-4.587-1.88-9.833,0.316-11.714,4.904c-7.666,18.711-12.573,39.091-14.627,60.653H76.239
			c1.317-52.543-2.581-112.529-7.057-169.844c-0.387-4.942-4.678-8.636-9.653-8.253c-4.944,0.385-8.64,4.707-8.254,9.651
			c4.699,60.192,8.767,123.305,6.729,177.091c-0.686,18.4-1.985,34.474-3.971,49.141c-0.347,2.568,0.431,5.162,2.137,7.113
			c1.705,1.952,4.169,3.071,6.761,3.071H197.71c3.744,0,7.095-2.323,8.409-5.828l9.491-25.325l58.366,30.153
			c1.274,0.657,2.687,1.001,4.121,1.001h189.089c4.96,0,8.98-4.021,8.98-8.98C476.168,490.35,475.589,464.94,474.64,452.257z
			 M237.754,164.521H60.427c-0.405-5.424-0.842-11.372-1.273-17.493h178.93C237.882,152.93,237.772,158.773,237.754,164.521z
			 M238.959,129.069H57.94c-0.758-11.66-1.398-22.61-1.94-33.105h185.828C240.59,107.19,239.63,118.268,238.959,129.069z
			 M244.024,78.004H55.154c-0.251-5.927-0.468-11.772-0.649-17.505h192.063C245.652,66.359,244.801,72.204,244.024,78.004z
			 M249.574,42.54H54.04c-0.165-8.441-0.248-16.662-0.245-24.581h200.528C252.623,26.136,251.038,34.354,249.574,42.54z
			 M201.786,466.564l-10.297,27.477H73.081c1.1-9.972,1.923-20.589,2.493-32.052h126.284
			C201.819,463.507,201.795,465.031,201.786,466.564z"/>
	</g>
</g>
</svg>