<svg width="48" height="48" viewBox="0 0 48 48" fill="none" xmlns="http://www.w3.org/2000/svg">
<path d="M24.6806 41.8754C24.2933 41.894 23.9524 42.0837 23.5782 41.8819C23.3309 41.7486 23.149 41.7609 22.8638 41.7569L20.377 41.6966L16.1297 41.3623C15.9911 41.3439 15.8425 41.3344 15.7096 41.2894L15.6797 41.2788C14.4046 40.8421 14.6721 39.5717 14.7479 38.505L14.9048 36.0171C14.4552 35.9933 12.2642 36.0991 11.985 35.9641L11.954 35.9476C11.3835 35.6523 11.4977 35.0681 11.517 34.5299L11.6179 28.8283C11.6433 28.2801 11.5717 27.6722 11.6718 27.1347C11.7362 26.7884 11.7206 26.4151 11.7466 26.0627L11.9469 23.6612L12.7185 17.7775C13.024 15.9915 13.3171 14.2234 13.8399 12.4832C14.5206 10.2172 15.0093 9.6389 17.2802 9.3719C17.6055 9.33365 18.3932 9.19138 18.6995 9.04354C19.2543 8.77574 20.3967 7.47834 20.872 6.8902C21.364 6.28148 22.6457 6.09843 23.357 6.03313C24.4053 5.93882 26.0957 6.06051 26.8987 6.70701L26.9281 6.73124C27.2021 6.95441 27.4162 7.26281 27.6576 7.52123C28.1288 8.02584 28.9334 8.95134 29.5785 9.13518L29.987 9.25302C31.3324 9.5887 32.7514 9.23446 33.56 10.861L34.2964 12.9336L34.6013 14.2138C34.6521 14.357 34.663 14.5048 34.6993 14.6513L34.9218 15.6799C35.0246 16.1486 35.0936 16.6251 35.1597 17.1005L35.3029 17.9467C35.3852 18.4787 35.4458 19.0161 35.532 19.5471L36.2449 26.3864L36.3527 28.1504C36.3786 28.7413 36.4317 29.315 36.451 29.8947L36.4755 31.9801C36.4782 32.1907 36.525 32.3901 36.5323 32.5976L36.5387 34.904C36.5387 35.0908 36.5613 35.2918 36.4839 35.466L36.4702 35.4963C36.3027 35.8895 36.0755 36.0071 35.6833 36.0084L33.0525 36.0172L33.3116 39.5622C33.3517 39.8245 33.3467 40.1502 33.2498 40.4014L33.2119 40.4968C33.071 40.8291 32.7453 41.1158 32.4101 41.2452L32.374 41.2589C31.994 41.4077 31.5817 41.3984 31.1827 41.4504C29.7465 41.6377 28.2933 41.7217 26.8469 41.785C26.128 41.8164 25.3935 41.7618 24.6806 41.8754ZM23.57 7.20084C22.9703 7.23505 22.3239 7.35074 21.7829 7.61934L22.7909 10.3162C22.8017 10.356 22.8174 10.3916 22.8326 10.4299L23.7268 13.1046C23.7999 13.4224 23.883 13.7699 24.0235 14.0626L24.1485 13.7289L26.2529 7.71051C25.6972 7.18021 24.2705 7.19521 23.57 7.20084ZM20.9547 8.63868C20.5574 9.00796 20.1651 9.37513 19.7344 9.7063C19.0736 10.2145 18.28 10.6497 17.7868 11.3384C17.9363 13.013 20.4509 16.1386 21.8383 17.2869L21.8565 17.3011L23.5033 18.8168C23.4355 18.135 23.4787 17.4646 23.3789 16.7825L23.2456 15.8669C23.1313 15.2436 22.965 14.6301 22.7932 14.0206L21.3463 9.74413C21.2109 9.38024 21.0574 9.01335 20.9547 8.63868ZM27.1116 8.73065L25.9796 11.745L25.3089 13.8752C24.7926 15.5946 24.6263 16.5814 24.6269 18.3231L24.6208 19.0796C24.6185 19.2492 24.6056 19.419 24.6448 19.5854C24.8506 19.3047 25.0028 18.9902 25.1971 18.7019C25.4255 18.3629 25.7072 18.0469 25.9693 17.7336C27.1788 16.3643 30.0126 13.2756 30.2443 11.4066C29.8986 10.6543 29.0571 10.2927 28.4351 9.8092L27.5587 9.09895C27.4149 8.97759 27.2879 8.84399 27.1341 8.73365L27.1116 8.73065ZM31.0841 10.5588C32.2218 11.8809 29.5367 15.3737 28.6359 16.4587L26.5428 18.8791C25.8252 19.7873 24.7724 21.3084 24.5886 22.4145C24.5322 22.7542 24.564 23.1398 24.5637 23.4856L24.5634 39.8321C24.5635 40.0999 24.5392 40.3906 24.5835 40.6539L27.1275 40.6008C27.3746 40.5917 27.6174 40.5436 27.8638 40.5306L28.7781 40.5025L32.1574 40.1054C32.1572 39.7768 32.119 39.4671 32.0992 39.1427L32.0492 38.113C32.0025 37.5306 32.0305 36.7364 31.9358 36.2405C31.8621 35.8536 31.8942 35.4313 31.8631 35.0368L31.6274 31.61C31.6004 31.1572 31.6142 30.7053 31.5628 30.2538C31.4322 30.3625 31.316 30.4876 31.1826 30.5934C30.3269 31.2718 29.0987 31.4421 28.127 30.9057C27.7489 30.697 27.1202 30.2692 27.3425 29.7575L27.36 29.7165C27.8937 28.4936 28.6079 30.8115 30.3238 29.7741C31.1675 29.1835 31.4052 28.4712 31.3495 27.5077L30.8721 23.8685C30.4958 21.99 29.8836 20.8293 31.0625 18.9929C31.2865 18.6437 31.7786 17.8491 32.2958 17.946L32.4048 17.9774C32.6876 18.0628 32.8672 18.5581 32.6892 18.8091C32.5741 18.9711 32.4124 19.1106 32.2882 19.2689C31.1558 20.712 31.5328 21.6674 31.9272 23.2619C32.035 23.6979 32.0926 24.1414 32.1651 24.5831L32.2988 25.383L32.7881 30.9449L32.9156 33.7591C32.9283 34.0993 32.978 34.4324 32.9813 34.7765C33.1838 34.8219 33.4725 34.7873 33.684 34.7874L35.4158 34.7997C35.3048 33.9463 35.3809 33.0462 35.3623 32.1857C35.3533 31.7685 35.2863 31.3598 35.2719 30.9446L35.2615 29.4146C35.2548 29.101 35.2006 28.7958 35.1833 28.4841L35.1583 27.2678L34.6045 21.1525L33.9308 16.6748C33.721 15.3946 33.4419 14.1078 33.0771 12.8626C32.7359 11.6986 32.6202 10.9633 31.3477 10.6157C31.2771 10.5965 31.1846 10.5586 31.1127 10.5535L31.0841 10.5588ZM16.8414 10.6056C16.4374 10.6741 15.8841 10.808 15.6348 11.1622C14.9742 12.1006 14.5249 14.4122 14.2852 15.5358L13.4083 20.8478L12.8086 27.8606C12.7935 28.1746 12.7424 28.4849 12.7375 28.7994L12.7251 30.7267C12.7172 30.8982 12.6798 31.0672 12.6721 31.2405L12.6556 34.4333C12.6556 34.5499 12.645 34.678 12.664 34.7924L15.0054 34.801L15.0276 33.6305C15.0347 33.4846 15.0694 33.3449 15.0786 33.2006L15.4052 27.7267L15.6917 25.3244L16.2774 22.4071C16.6906 20.6958 16.3443 20.0036 15.252 18.7581C14.9946 18.4645 15.5461 16.9989 16.8569 18.8838C17.478 19.7769 17.766 20.8896 17.5646 21.9693L16.6197 27.2111C16.3948 28.1648 16.8684 29.2487 17.6745 29.7828C19.3108 30.7359 19.7114 29.0172 20.3945 29.4416C20.5146 29.5162 20.5833 29.6591 20.6248 29.7892L20.6346 29.8194C20.8439 30.4703 19.873 30.9711 19.3828 31.1215C18.4486 31.4081 17.3978 31.1153 16.6907 30.4583C16.6061 30.3798 16.5255 30.2798 16.4314 30.2147C16.384 30.482 16.3866 30.7359 16.3722 31.005L16.2151 33.1271L16.0225 36.5392C15.9793 37.3296 15.9559 38.1469 15.9063 38.9305C15.8286 40.158 15.4671 40.1102 16.9102 40.2432L19.9571 40.5082L23.4318 40.6157L23.4294 20.8453C23.4289 20.641 23.4434 20.4152 23.403 20.2156L23.3843 20.2057C23.1339 20.0706 22.9147 19.8578 22.6993 19.6745L21.6944 18.7953C19.8691 17.0729 17.4927 14.6053 16.7829 12.1804C16.4724 11.1194 16.6853 11.4441 16.9138 10.6019L16.8414 10.6056Z" fill="black"/>
</svg>
