<svg width="48" height="48" viewBox="0 0 48 48" fill="none" xmlns="http://www.w3.org/2000/svg">
<path d="M33.6728 42.6421C33.0225 42.9731 32.8519 42.8006 32.2853 42.752C32.158 42.741 32.0331 42.7699 31.9034 42.7516C31.7046 42.7236 31.6538 42.642 31.4542 42.7079L31.132 42.8143C30.4156 43.0476 29.7195 43.0935 28.9717 43.0079C28.431 42.946 27.8214 42.7331 27.2785 42.875L27.2345 42.8868C26.8913 42.9747 26.6167 43.1665 26.308 43.3302C25.021 44.0127 24.3899 43.6008 23.1512 43.747C22.9566 43.77 22.8029 43.8986 22.6156 43.936C21.9931 44.0603 21.641 43.5324 21.1846 43.23C19.7892 42.3053 18.021 42.1788 16.428 42.5887C15.7809 42.7552 15.1803 43.059 14.5173 42.7481C14.048 42.528 13.6821 42.1875 13.5067 41.6904L13.493 41.6508C13.3061 41.138 13.4927 40.6471 13.5743 40.1411L15.1334 31.8437L17.2476 23.7495L18.7956 18.7599C18.8904 18.4717 18.9511 18.341 18.9341 18.0298L18.8833 17.3309C18.7839 16.4211 18.6331 15.5456 18.3695 14.6656C18.1415 13.9044 17.7752 13.1886 17.5785 12.4217C17.2747 11.237 17.4695 9.76897 18.4252 8.92827C18.4576 8.89972 18.4274 8.86086 18.418 8.82266L17.6487 6.14024C17.4468 5.4492 16.9176 4.43363 17.8973 4.10376C18.6266 4.06863 18.6619 4.68531 18.8441 5.22608C18.9426 5.5183 19.046 5.83658 19.1082 6.13827L19.677 8.17236C21.4727 7.67492 22.7131 8.30089 24.0025 9.42083C25.1999 8.34721 26.6411 7.60953 28.3004 8.16191L29.0173 5.67814C29.1289 5.27956 29.2095 4.8043 29.3883 4.43059C29.6009 3.98648 30.3305 3.99079 30.5626 4.41887L30.5806 4.45284C30.7777 4.80683 30.6103 5.21427 30.4983 5.56649L29.5876 8.76317C29.5167 8.9757 29.7077 9.02038 29.8317 9.18172C30.987 10.6857 30.5418 12.2346 29.9231 13.7781C29.5412 14.7306 29.2948 15.8485 29.1646 16.8681L29.1029 17.6482C29.0804 17.8696 28.9851 18.281 29.0738 18.4799L30.5487 23.0995C30.6105 23.4082 30.7495 23.8442 30.86 24.1497L31.2953 25.6987C31.3231 25.8534 31.3701 26.0371 31.421 26.1878L32.3275 29.6362L34.5029 40.481C34.5716 40.8341 34.68 41.1472 34.561 41.5168L34.5483 41.5542C34.3937 42.0414 34.108 42.3825 33.6728 42.6421ZM20.5086 9.45392C19.997 9.51645 19.5596 9.72969 19.2406 10.1458L19.103 10.3522C18.744 10.9228 18.7783 11.5997 18.9654 12.2222L19.7248 14.3174L20.0018 15.4972C20.2355 16.3838 20.1553 17.1906 20.2803 18.0172L27.7236 18.0163C27.8161 17.6666 27.7526 17.0907 27.8291 16.6742C27.9319 15.5687 28.1841 14.425 28.5826 13.3839C28.8092 12.7916 29.1172 12.1748 29.153 11.5308C29.2059 10.5785 28.6132 9.53581 27.586 9.45177C25.2202 9.25813 24.8973 11.1357 23.9752 11.1384C23.5083 11.1398 23.3476 10.7657 23.0516 10.4756C22.3827 9.81983 21.4736 9.33613 20.5086 9.45392ZM20.046 19.4812L18.6584 23.8472L17.1681 29.3718L15.7282 35.7979L15.2524 38.4092C15.2127 38.6686 15.1576 38.9208 15.1305 39.1827L16.6232 38.7341C17.9683 38.3871 19.9736 38.3255 21.182 39.164L21.4321 39.3676C21.6258 39.5327 21.7428 39.7268 21.8765 39.9382L21.8958 39.9299C22.5789 39.6439 23.5015 39.5096 24.2374 39.5962C24.7389 39.6553 25.2665 39.8677 25.7085 39.5503C26.035 39.3159 26.362 39.1207 26.7366 38.9702C27.4839 38.7146 28.0967 38.711 28.8787 38.7982L30.0469 38.9307C30.2624 38.9602 30.4803 39.0321 30.6974 39.0417C31.4625 39.0755 32.0405 38.9341 32.8756 39.1455C31.872 33.078 30.3605 27.1234 28.5309 21.2531C28.4568 21.0155 28.0213 19.5573 27.9362 19.482L20.046 19.4812ZM18.2257 39.9941C16.8952 40.0265 16.0983 40.4878 14.8631 40.6719C14.8484 41.5653 14.8087 41.542 15.8484 41.2656C16.3321 41.1371 16.8189 41.0005 17.3222 40.98C18.73 40.937 19.329 40.9239 20.6744 41.3585L20.6655 41.3353C20.5636 41.0666 20.4834 40.364 20.2136 40.2456C19.6551 40.0006 18.8399 39.9263 18.2257 39.9941ZM27.8581 40.1833C26.8222 40.2565 26.6568 40.878 25.8634 41.1098L25.8246 41.1215C24.9346 41.3739 23.8634 40.7269 22.4448 41.2435L22.0494 41.4194C22.2074 41.8515 22.268 42.5353 22.8925 42.3171C23.052 42.2615 23.2553 42.2809 23.4234 42.281L24.4892 42.2885C24.7506 42.2917 25.0572 42.3249 25.3089 42.246C25.6413 42.1193 25.8618 41.8866 26.1681 41.7225C27.7486 40.8752 29.3381 42.0916 31.1368 41.2822L30.8066 40.5965C30.0051 40.3204 28.7124 40.1398 27.8581 40.1833ZM32.3845 40.6309L32.6494 41.3702C32.8372 41.3639 33.0088 41.356 33.1909 41.3056C33.1791 41.0917 33.1644 40.8323 33.098 40.6283L32.3845 40.6309Z" fill="black"/>
<path d="M17.3669 37.032C16.1379 37.0649 16.6476 35.5115 16.7801 34.8169L17.9622 29.7851C18.0797 29.3509 18.1483 29.117 18.6278 28.9973C18.9158 28.9782 19.2002 29.0841 19.3294 29.3591L19.3841 29.4846C19.4899 29.7917 19.3122 30.1599 19.2362 30.4575L19.0567 31.1841C18.6786 32.7297 18.2868 34.2596 18.0184 35.8301C17.9196 36.4087 18.0428 36.8093 17.3669 37.032Z" fill="black"/>
</svg>
