<svg width="48" height="48" viewBox="0 0 48 48" fill="none" xmlns="http://www.w3.org/2000/svg">
<path d="M24.2926 42.726L17.3205 42.7262C15.6076 42.7253 15.3493 42.2078 14.8514 40.5478C14.6968 40.032 14.6451 40.054 14.1858 39.7584C14.1532 40.0498 14.1739 40.3568 14.1741 40.6507L14.1811 42.3901C14.1873 43.0799 14.2174 44.0136 13.2534 44.1605L13.2184 44.1655C12.8117 44.2265 11.113 44.315 10.7168 44.1705L10.6754 44.1547C9.94096 43.8795 9.77511 43.3456 9.77254 42.6616L9.77343 41.8004C9.77924 41.3428 9.80764 41.5639 9.53924 41.2025C8.669 40.0306 8.33089 38.5015 8.29789 37.0659C8.28594 36.5449 8.38199 36.0245 8.43364 35.5074L9.64091 23.0973C9.87252 20.4938 10.548 17.7981 12.9788 16.3435C13.5268 16.0156 14.1242 15.782 14.6988 15.5055L15.8738 14.8776L15.7192 14.6496C15.1181 13.9029 14.9663 12.8313 15.0616 11.9082C15.2984 9.61261 16.8819 7.71694 18.7589 6.49341C19.5013 6.00938 20.2865 5.62505 21.0641 5.20566C22.016 4.69233 22.5341 4.25472 23.6638 4.15769C24.9988 4.13526 25.4348 4.37129 26.6129 5.0603L27.8032 5.69335C30.3712 7.05511 32.618 8.93316 32.9447 11.9685C33.0552 12.9956 32.796 14.0653 32.1344 14.8669C32.9939 15.4777 34.0282 15.7806 34.9371 16.2993C35.8578 16.8248 36.6289 17.6887 37.1586 18.5988L37.606 19.4641C38.1238 20.4413 38.2545 21.8231 38.3561 22.8992L39.3744 33.5504C39.4938 34.9555 39.8547 36.758 39.5982 38.153L39.4611 38.9332C39.2795 39.7464 38.9206 40.7203 38.3422 41.3494C38.1829 41.5228 38.2254 41.6091 38.226 41.8367L38.2279 42.6207C38.228 42.8027 38.2362 42.9923 38.1989 43.1715L38.1922 43.2023C38.0981 43.6469 37.7495 44.0815 37.2893 44.1713L37.2615 44.1765C36.9404 44.2391 35.2103 44.2896 34.8697 44.1883L34.8395 44.1789C33.8302 43.8903 33.8195 43.2521 33.8222 42.4257L33.8266 40.7762C33.8274 40.4457 33.849 40.1043 33.8032 39.7767C33.4903 40.0399 33.2878 39.9748 33.1868 40.4293C32.7776 42.2709 32.3909 42.7278 30.4481 42.7264L24.2926 42.726ZM23.8425 5.51672C23.2848 5.55746 22.8516 5.76015 22.3694 6.03563L21.5973 6.468C20.6485 6.99277 19.6688 7.48407 18.8097 8.15255C17.0061 9.55594 15.1946 12.5813 17.3365 14.4408L17.584 14.4895C17.8154 14.5287 18.0212 14.6196 18.2413 14.6954L23.5353 16.542C23.7652 16.6369 23.8794 16.7578 24.1223 16.6601L28.6058 15.1027C29.2455 14.8891 29.8798 14.5492 30.5538 14.4591C30.7843 14.4283 31.0384 14.063 31.1678 13.8863C31.5878 13.313 31.6994 12.5979 31.5808 11.9062C31.0638 8.88863 28.4848 7.6035 26.0603 6.30994C25.3491 5.93054 24.6851 5.46914 23.8425 5.51672ZM16.9044 15.9322L14.9658 16.9058C14.1838 17.2847 13.4513 17.5748 12.8385 18.2068C11.836 19.2408 11.2405 20.7149 11.0628 22.1363L10.2299 30.7591L9.78791 35.4178C9.65511 36.5388 9.51233 37.6827 9.88218 38.7828L9.96243 39.0409C10.1772 39.5992 10.3987 40.1288 10.7786 40.6033C10.894 40.7475 11.1452 40.9399 11.1605 41.1259C11.2041 41.6566 11.106 42.2211 11.1824 42.746L12.7973 42.7567C12.8391 41.8976 12.7509 41.0269 12.8012 40.1669L13.0545 37.0543L14.152 26.0988C14.1834 25.736 14.1635 25.1885 14.4545 24.9221C14.7028 24.695 15.1528 24.6906 15.3771 24.956C15.59 25.2082 15.5529 25.5472 15.5165 25.853L14.2984 38.2273C15.3041 38.9308 15.907 39.0178 17.0616 39.0186L31.0704 39.0194C32.0082 39.0184 32.9691 38.907 33.7026 38.2291L32.4617 25.652C32.4529 25.5024 32.4424 25.3317 32.5003 25.1914L32.515 25.1549C32.6751 24.7713 33.0836 24.6515 33.4416 24.8419C33.7467 25.0042 33.7951 25.4036 33.8136 25.7153L34.143 29.1735L35.1631 39.4449C35.1869 39.596 35.1807 39.7597 35.1861 39.9128L35.2046 42.7449L36.8401 42.7631L36.8422 41.6257C36.8436 41.265 36.8031 41.111 37.0325 40.8264L37.4151 40.3459C38.3616 39.065 38.4247 37.3897 38.2734 35.8707L36.9647 22.4638C36.7626 20.656 36.1837 18.8551 34.6317 17.7326C34.2478 17.455 33.8112 17.2681 33.3863 17.0651L31.7975 16.2822C31.5629 16.1635 31.3179 16.0563 31.0906 15.9251L26.2374 17.6347L26.224 28.9802C26.224 29.0739 26.2365 29.188 26.2212 29.2801C26.1244 29.8616 25.118 29.8183 25.0468 29.2848C25.0071 28.9872 25.035 28.654 25.0347 28.3526L25.0326 18.8333C25.0324 18.6128 25.0676 18.2668 24.9879 18.064C23.6838 18.5838 23.9949 18.2789 22.9723 18.0353C22.9298 18.3375 22.9399 18.644 22.9398 18.9484L22.9398 27.1107C22.9399 27.3197 23.0211 27.6608 22.8896 27.8364L22.8679 27.8669C22.5688 28.2717 21.8186 28.1927 21.7724 27.6522C21.7499 27.3893 21.7682 27.1077 21.768 26.8431V18.3901C21.7679 18.1426 21.7879 17.8802 21.76 17.6349L16.9044 15.9322ZM16.2639 40.4792L16.323 40.6564C16.3878 40.8653 16.4639 41.0532 16.5141 41.2688L31.4886 41.2681C31.5133 41.2067 31.5332 41.1507 31.548 41.0862L31.6665 40.6832C31.6893 40.6222 31.7311 40.5446 31.7366 40.4807L16.2639 40.4792Z" fill="black"/>
<path d="M27.144 34.201C27.0903 34.0448 27.0953 33.8745 27.0198 33.7274L21.5913 33.7296C21.2091 33.7298 21.0017 33.5958 20.9328 33.9589C20.673 35.3288 19.2468 37.6223 17.8726 38.1119C17.5354 38.232 17.0991 37.9872 16.9974 37.6526C16.8144 37.0502 17.4959 36.7782 17.8671 36.479C18.7814 35.7417 19.3391 34.6922 19.6325 33.5669C19.778 33.009 19.7874 32.4601 20.4293 32.2772L27.5019 32.2715C28.2543 32.3118 28.3326 33.4233 28.4989 34.0081L28.6322 34.3881C28.982 35.2247 29.5092 36.0144 30.2463 36.5602C30.5541 36.788 31.0852 37.0037 31.0888 37.4597C31.091 37.7235 30.8568 38.0354 30.6089 38.1043C30.0775 38.252 29.5194 37.7143 29.1508 37.398C28.1831 36.568 27.4708 35.4376 27.144 34.201Z" fill="black"/>
</svg>
