<svg width="48" height="48" viewBox="0 0 48 48" fill="none" xmlns="http://www.w3.org/2000/svg">
<path d="M18.4391 41.4352C17.3559 41.4674 15.4382 41.127 14.4772 40.7708C14.2535 40.6878 14.3124 40.7315 14.1685 40.9259C13.957 41.212 13.7258 41.5041 13.4498 41.7302C12.2635 42.7022 10.2614 42.6034 9.02322 41.8131C7.5872 40.8965 6.79534 39.276 6.86786 37.5931C6.87747 37.3711 6.91656 37.1491 6.93105 36.9265L8.32703 25.3587L8.93336 21.5033L9.72152 17.8001C9.95031 16.6157 9.91778 15.3993 10.235 14.2302C10.9978 11.4193 13.1281 10.1228 15.4065 8.58071L17.0518 7.38235C17.4693 7.05807 17.9188 6.75427 18.265 6.35021C18.7195 5.81977 18.8096 5.3461 19.5987 5.68932C21.8594 6.67262 25.7367 6.73468 28.0483 5.8268C28.2819 5.73507 28.4948 5.61005 28.7414 5.5568C29.3213 5.51776 29.527 6.02776 29.8671 6.38935C30.836 7.41952 32.4214 8.37994 33.5743 9.20251L34.744 10.1266C37.1677 12.1644 37.999 14.1486 38.4488 17.1557L38.6718 18.9368C38.6889 19.0662 38.6901 19.1989 38.7126 19.3273L38.8568 19.9698C38.9448 20.3866 39.075 20.791 39.15 21.2093L39.5035 23.2582C39.5382 23.4353 39.5388 23.622 39.5636 23.8001L41.0606 36.5103C41.1196 37.1656 41.2099 37.789 41.1461 38.4552C40.9322 40.6897 38.8071 42.6068 36.5439 42.438C35.2829 42.344 34.3476 41.7623 33.5395 40.8354C32.8806 41.0061 32.2442 41.2067 31.569 41.3112L29.7674 41.504L28.1527 41.5687L21.8232 41.568C21.6016 41.5644 21.3854 41.5209 21.1662 41.5174L18.4391 41.4352ZM19.9091 7.22096L20.3585 8.92355C22.7776 9.56461 24.9692 9.57624 27.4312 9.03577L27.4751 8.7924L27.7082 7.31747C26.5284 7.65605 25.3264 7.76021 24.1036 7.7611L23.0864 7.75458C22.0593 7.70532 20.8874 7.50521 19.9091 7.22096ZM28.9991 7.37044C28.9492 7.60674 28.9469 7.85246 28.919 8.0919C28.6812 10.132 27.0473 12.3442 25.6038 13.7139L24.8889 14.3648C24.6445 14.5754 24.6611 14.5621 24.66 14.8912L24.6589 36.9017C24.6592 37.1264 24.6409 37.3736 24.6802 37.5944L30.9218 37.307L33.0106 36.9069L32.9756 36.0814C32.9628 35.9123 32.9337 35.746 32.928 35.5761L32.8111 30.9377C32.8025 30.6227 32.7475 30.3113 32.7402 29.9994L32.6536 25.1873C32.6357 24.8702 32.6459 24.5556 32.6127 24.2389C32.4746 22.9186 32.363 23.1359 32.6861 21.8606L32.9898 20.3806L33.3223 16.8491C33.4537 15.3062 33.9279 13.6421 34.8456 12.3688L34.968 12.2011C35.0269 12.1213 34.926 12.0856 34.8627 12.0225L34.2668 11.4665C32.603 9.98626 30.637 8.92177 29.0258 7.36838L28.9991 7.37044ZM18.7146 7.69988L13.1307 11.8661C13.8909 12.6186 14.1745 13.2479 14.4739 14.2748L14.6511 15.2333C14.7153 15.5005 14.7129 15.8097 14.7281 16.0843L14.914 18.7493C14.983 19.6816 15.1113 20.6407 15.3371 21.5463C15.5897 22.559 15.591 22.5848 15.4646 23.6771L15.286 25.8451L15.2386 28.7239C15.2338 28.8922 15.1866 29.0552 15.1804 29.2275L15.0814 36.621C15.0798 36.7068 15.0428 36.8403 15.1224 36.8826C15.6558 37.1662 17.0486 37.2298 17.6744 37.3092L23.338 37.5743L23.331 14.5319L22.5246 13.8534C20.2866 11.9034 19.4616 10.4396 18.7146 7.69988ZM21.2318 10.4795C22.0208 11.5906 22.9432 12.5309 24.0069 13.382C24.4586 12.9475 25.0013 12.538 25.393 12.0506C25.8055 11.5888 26.2067 11.072 26.5279 10.5423C26.0642 10.6442 25.5498 10.7323 25.0763 10.7592L23.7419 10.7681C23.3841 10.7671 23.014 10.7842 22.6615 10.7183L21.2318 10.4795ZM12.2972 12.8508C11.1558 14.5201 11.3433 16.0155 11.0245 17.8881L10.2196 21.6556L8.21444 36.9991C8.16227 37.6022 8.07006 38.2354 8.28775 38.8205L8.44202 39.2309C8.7107 39.9852 9.53435 40.7726 10.294 40.9703C11.4418 41.3156 12.5751 41.0525 13.3077 40.0595C13.6105 39.6493 13.6635 39.5016 13.6637 39.0153L13.6631 37.9772C13.663 37.7455 13.6217 37.4389 13.726 37.2316C13.7631 37.1579 13.813 35.6294 13.8202 35.2963L13.8274 33.0204C13.8276 32.6854 13.8792 32.368 13.8892 32.0382L13.9019 29.7902C13.9066 29.5732 13.9517 29.3614 13.9563 29.1427L14.0501 25.0442C14.0665 24.7288 14.0653 24.406 14.1028 24.0926L14.1937 23.3423C14.3499 22.3235 13.9414 21.5569 13.8044 20.5423L13.5244 17.5306L13.3914 15.4052C13.2993 14.4365 12.994 13.5509 12.2972 12.8508ZM35.8654 13.1883C34.7812 14.9501 34.6816 15.9571 34.559 17.9285L34.3594 19.999L33.9957 22.0269C33.91 22.413 33.7427 22.785 33.7993 23.179L33.9879 25.1557L34.0443 28.8395C34.052 29.093 34.1144 29.3324 34.117 29.5892L34.1259 32.6095C34.1335 32.8685 34.1809 33.1201 34.1883 33.3799L34.2269 35.8353C34.2358 36.0915 34.2899 36.34 34.2969 36.597L34.3128 38.1272C34.3127 38.5787 34.2618 39.0787 34.3831 39.5146C34.7712 40.9096 36.4084 41.329 37.6807 40.9576C40.2073 39.9552 39.9401 37.9734 39.6825 35.746L39.2838 31.8844L38.1509 22.9265L37.773 20.9529C37.5198 19.8291 37.4079 19.1431 37.2862 18.0039C37.1291 16.5324 36.7425 14.5731 35.9329 13.2931L35.8654 13.1883ZM14.9855 38.2537L15.0093 39.1116C15.0356 39.5825 15.0829 39.5461 15.5335 39.6934C16.2033 39.9125 16.8979 39.9963 17.5966 40.0581L19.24 40.1514C19.5228 40.1694 19.8012 40.2212 20.0854 40.2294L23.3373 40.2375L23.3217 38.8921L21.5621 38.8841C21.2952 38.8756 21.0305 38.8265 20.7636 38.8104L16.7529 38.5359C16.1562 38.4726 15.5686 38.4018 14.9855 38.2537ZM33.0159 38.3049C32.4781 38.4062 31.9547 38.5178 31.4158 38.5844L28.3854 38.8114C28.105 38.8263 27.8265 38.8776 27.5469 38.885L25.6834 38.8942C25.3418 38.895 24.9969 38.8872 24.6565 38.9196L24.685 40.2429L28.9098 40.2227C29.0892 40.2147 29.2608 40.1819 29.4383 40.1672L30.7574 40.0576C31.4852 39.9838 32.373 39.9106 33.033 39.5566L33.0159 38.3049Z" fill="black"/>
</svg>
