<?xml version="1.0" encoding="iso-8859-1"?>
<!-- Uploaded to: SVG Repo, www.svgrepo.com, Generator: SVG Repo Mixer Tools -->
<svg fill="#000000" height="800px" width="800px" version="1.1" id="Layer_1" xmlns="http://www.w3.org/2000/svg" xmlns:xlink="http://www.w3.org/1999/xlink" 
	 viewBox="0 0 512.001 512.001" xml:space="preserve">
<g>
	<g>
		<path d="M501.412,393.121l-26.406-133.322c-7.995-40.363-32.975-75.387-68.534-96.09c-35.561-20.704-78.353-25.137-117.401-12.16
			l-1.286,0.427c-37.463,12.448-57.815,53.054-45.366,90.518l31.703,95.409c1.55,4.664,6.583,7.19,11.252,5.639
			c4.665-1.55,7.189-6.589,5.639-11.252l-31.703-95.409c-9.352-28.148,5.938-58.658,34.088-68.012l1.286-0.428
			c34.202-11.365,71.684-7.483,102.831,10.652c31.147,18.134,53.028,48.811,60.03,84.166l26.406,133.322
			c7.985,40.312-15.403,80.484-54.403,93.442c-42.769,14.213-89.124-9.022-103.335-51.79l-26.841-80.777
			c-1.551-4.665-6.586-7.19-11.252-5.639c-4.665,1.55-7.19,6.589-5.639,11.252l26.841,80.777
			c13.858,41.706,52.813,68.156,94.531,68.156c10.379,0,20.935-1.639,31.31-5.086C482.654,491.134,511.135,442.214,501.412,393.121z
			"/>
	</g>
</g>
<g>
	<g>
		<path d="M459.43,354.937c-7.457-22.443-16.758-42.121-27.644-58.485c-2.722-4.092-8.249-5.202-12.339-2.481
			c-4.093,2.722-5.204,8.248-2.481,12.34c10.011,15.047,18.615,33.296,25.573,54.239c1.24,3.733,4.715,6.096,8.445,6.096
			c0.93,0,1.877-0.147,2.808-0.457C458.456,364.639,460.981,359.6,459.43,354.937z"/>
	</g>
</g>
<g>
	<g>
		<path d="M416.143,276.331c-28.455-31.147-57.908-37.126-71.157-38.144l-7.005-21.082c-1.55-4.665-6.586-7.19-11.252-5.639
			c-4.665,1.55-7.19,6.589-5.639,11.252l7.503,22.583c-8.676,12.66-29.362,52.758-5.955,123.203c1.24,3.733,4.715,6.096,8.445,6.096
			c0.93,0,1.876-0.147,2.808-0.457c4.665-1.55,7.189-6.589,5.639-11.252c-7.17-21.58-14.126-53.579-6.548-83.479
			c2.996-11.819,7.381-19.648,9.969-23.554c9.331,0.563,34.738,4.774,60.049,32.479c3.316,3.629,8.945,3.883,12.574,0.568
			C419.203,285.59,419.457,279.96,416.143,276.331z"/>
	</g>
</g>
<g>
	<g>
		<path d="M253.926,54.127c-1.362-4.722-6.295-7.449-11.017-6.085c-4.723,1.361-7.448,6.294-6.087,11.017
			c2.566,8.899,2.767,18.394,0.581,27.458l-49.721,206.268c-9.017,37.402-42.572,62.59-79.456,62.589
			c-6.322,0-12.744-0.741-19.153-2.286c-39.951-9.63-66.637-47.691-62.074-88.532l15.092-135.071
			c4.003-35.819,23.224-68.229,52.734-88.92c29.511-20.691,66.531-27.714,101.569-19.268l1.32,0.318
			c11.123,2.681,20.91,8.683,28.304,17.358c3.19,3.742,8.806,4.189,12.547,1s4.189-8.806,1-12.547
			c-9.848-11.555-22.877-19.548-37.679-23.117l-1.32-0.318c-40.004-9.641-82.269-1.623-115.96,21.999
			C50.914,49.612,28.971,86.614,24.401,127.508L9.309,262.579c-5.557,49.736,26.94,96.086,75.591,107.814
			c7.81,1.882,15.624,2.784,23.326,2.783c44.915-0.002,85.783-30.674,96.761-76.219l49.721-206.268
			C257.617,78.629,257.346,65.986,253.926,54.127z"/>
	</g>
</g>
<g>
	<g>
		<path d="M169.075,100.739l5.576-23.135c1.152-4.779-1.788-9.586-6.566-10.738c-4.776-1.15-9.586,1.787-10.738,6.567l-5.208,21.605
			c-8.198,1.343-22.546,5.147-38.391,15.93c-38.855,26.442-57.239,74.428-65.821,110.028c-1.152,4.779,1.788,9.586,6.566,10.738
			c0.701,0.169,1.403,0.249,2.093,0.249c4.017,0,7.662-2.739,8.645-6.816c11.104-46.062,30.989-80.218,57.506-98.777
			c14.225-9.955,26.915-12.98,32.936-13.894c2.929,3.702,7.932,11.12,11.895,22.601c10.068,29.156,5.829,61.628,0.501,83.734
			c-1.149,4.779,1.791,9.586,6.57,10.738c4.776,1.15,9.586-1.787,10.738-6.567C202.772,150.838,178.785,112.624,169.075,100.739z"/>
	</g>
</g>
</svg>