<svg width="48" height="48" viewBox="0 0 48 48" fill="none" xmlns="http://www.w3.org/2000/svg">
<rect x="0.5" y="0.5" width="47" height="47" rx="23.5" stroke="#282D2E"/>
<g clip-path="url(#clip0_23_271)">
<path d="M17.7255 20.8896H19.2978V19.4932C19.2978 17.0518 21.2607 15.1865 23.8193 15.1865C26.3779 15.1865 28.3408 17.0518 28.3408 19.4932V20.8896H29.913V19.4932C29.913 16.1631 27.2763 13.6143 23.8193 13.6143C20.372 13.6143 17.7255 16.1631 17.7255 19.4932V20.8896ZM16.9931 34.376H30.6454C33.0283 34.376 34.1611 32.9893 33.8583 30.4502L33.0185 23.2236C32.8134 21.4756 31.7587 20.5283 30.0595 20.5283H17.5791C15.8798 20.5283 14.8349 21.4756 14.6298 23.2236L13.7802 30.4502C13.4775 32.9893 14.6201 34.376 16.9931 34.376ZM16.9931 32.8038C15.7627 32.8038 15.167 32.042 15.333 30.6358L16.1826 23.4092C16.2802 22.5596 16.7685 22.1006 17.5791 22.1006H30.0595C30.8798 22.1006 31.3681 22.5596 31.4658 23.4092L32.3056 30.6358C32.4716 32.042 31.8759 32.8038 30.6454 32.8038H16.9931ZM22.9209 28.6924H24.7177C25.3818 28.6924 25.7724 28.3213 25.7724 27.6573V26.9541C28.3896 26.5147 30.831 25.1084 31.9052 22.4131L30.4599 21.7588C29.4443 24.4834 26.7783 25.5479 23.8193 25.5479C20.8603 25.5479 18.1943 24.4834 17.1787 21.7588L15.7431 22.4131C16.8076 25.1084 19.249 26.5147 21.8662 26.9541V27.6573C21.8662 28.3213 22.2568 28.6924 22.9209 28.6924Z" fill="#282D2E"/>
</g>
<defs>
<clipPath id="clip0_23_271">
<rect width="20.5351" height="20.7715" fill="white" transform="translate(13.7324 13.6143)"/>
</clipPath>
</defs>
</svg>
