<svg width="48" height="48" viewBox="0 0 48 48" fill="none" xmlns="http://www.w3.org/2000/svg">
<rect x="0.5" y="0.5" width="47" height="47" rx="23.5" stroke="#282D2E"/>
<g clip-path="url(#clip0_23_267)">
<path d="M18.3311 36.212H29.2978C30.9971 36.212 32.1006 35.0791 32.0127 33.3702L31.7783 28.9952V26.9346L31.0947 22.8526C31.0557 22.628 30.9189 22.501 30.7529 22.501C30.5381 22.501 30.4014 22.6768 30.4111 22.9307L30.6748 33.3116C30.6943 34.1319 30.1572 34.7081 29.3076 34.7081H18.3115C17.4717 34.7081 16.9248 34.1319 16.9541 33.3116L17.2178 22.9307C17.2276 22.6768 17.0811 22.501 16.876 22.501C16.71 22.501 16.5733 22.628 16.5342 22.8526L15.8506 26.837L15.8408 28.9366L15.6162 33.3702C15.5283 35.0791 16.6221 36.212 18.3311 36.212ZM14.376 31.4561C15.3818 31.7588 16.2119 31.6026 16.417 30.6065L16.749 29.0635L16.1143 25.5479L15.1475 29.7178C15.0791 29.9717 14.9326 30.0206 14.7276 29.9717L12.3643 29.3174C12.0811 29.2393 12.0127 29.0635 12.1006 28.7706L15.4111 16.6221C15.5772 16.0361 15.8408 15.6553 16.3486 15.4697L19.1709 14.415L20.001 12.667L15.7725 14.2393C14.8154 14.6006 14.3272 15.1963 14.1026 15.9678L10.5772 28.5069C10.294 29.5127 10.6651 30.3721 11.6904 30.6748L14.376 31.4561ZM33.2236 31.4561L35.9385 30.6651C36.9639 30.3721 37.3349 29.503 37.0517 28.5069L33.5166 15.9678C33.3017 15.1963 32.8135 14.6006 31.8564 14.2393L27.6377 12.667L28.458 14.415L31.2803 15.4697C31.7881 15.6553 32.0517 16.0361 32.208 16.6221L35.5381 28.7608C35.626 29.0538 35.5478 29.2393 35.2744 29.3174L32.8721 29.9717C32.667 30.0206 32.5107 29.9717 32.4619 29.7178L31.5146 25.5479L30.8799 29.0635L31.1826 30.6065C31.3682 31.6026 32.2178 31.7588 33.2236 31.4561ZM25.6455 28.7608C26.2217 28.7608 26.6709 28.3116 26.6709 27.7354C26.6709 27.169 26.2314 26.71 25.6455 26.71C25.0791 26.71 24.6299 27.1592 24.6299 27.7354C24.6201 28.3116 25.0693 28.7608 25.6455 28.7608ZM25.6455 33.0381C26.2217 33.0381 26.6709 32.5791 26.6709 32.003C26.6709 31.4366 26.2314 30.9776 25.6455 30.9776C25.0791 30.9776 24.6299 31.4268 24.6299 32.003C24.6201 32.5791 25.0693 33.0381 25.6455 33.0381ZM22.0615 35.5381H23.5557V25.7041L23.4287 26.3389L28.6631 17.5596C29.2881 16.5049 29.3076 16.0361 28.9072 15.0107L28.1162 13.0186C27.7451 12.0908 27.0908 11.7686 26.0264 11.7686H21.6123C20.5478 11.7686 19.8838 12.0908 19.5127 13.0186L18.7315 15.0107C18.3408 15.9971 18.3604 16.5049 18.9756 17.5596L22.1982 23.2237L22.0615 22.7452V35.5381ZM23.5557 23.7998L25.3916 13.8193C25.4892 13.3018 25.7627 13.0771 26.1631 13.0771C26.5537 13.0771 26.7881 13.3115 26.9639 13.751L27.501 15.167C27.7646 15.8604 27.8623 16.2705 27.4424 17.0127L23.5557 23.7998ZM22.7353 21.6709L20.1865 17.0127C19.7764 16.2607 19.8643 15.8604 20.1279 15.167L20.6748 13.751C20.8506 13.3018 21.0752 13.0771 21.4658 13.0771C21.8662 13.0771 22.1494 13.292 22.2471 13.8193L23.165 18.8779L22.7353 21.6709Z" fill="#282D2E"/>
</g>
<defs>
<clipPath id="clip0_23_267">
<rect width="27.0296" height="24.4629" fill="white" transform="translate(10.4852 11.7686)"/>
</clipPath>
</defs>
</svg>
