<svg width="48" height="48" viewBox="0 0 48 48" fill="none" xmlns="http://www.w3.org/2000/svg">
<rect x="0.5" y="0.5" width="47" height="47" rx="23.5" stroke="#282D2E"/>
<path d="M18.8584 34.708H28.7803C30.46 34.708 31.5146 33.6631 31.5439 31.9932L31.6709 22.4619L34.0049 22.999C34.9424 23.2139 35.5478 22.8232 35.792 21.8564L36.6514 18.3897C36.8955 17.4326 36.5244 16.7686 35.626 16.3877L28.8291 13.4873C28.3213 13.2627 27.9795 13.2822 27.5596 13.4775C26.29 14.083 25.2549 14.3955 23.8193 14.3955C22.374 14.3955 21.3486 14.083 20.0693 13.4775C19.6591 13.2822 19.3076 13.2627 18.7998 13.4873L12.0126 16.3877C11.1044 16.7686 10.7431 17.4326 10.9775 18.3897L11.8466 21.8564C12.081 22.8232 12.6865 23.2139 13.6337 22.999L15.9677 22.4619L16.0947 31.9932C16.1142 33.6631 17.1689 34.708 18.8584 34.708ZM18.8779 33.2041C18.0869 33.2041 17.6084 32.7158 17.5986 31.915L17.4619 21.0264C17.4619 20.792 17.2763 20.626 17.0126 20.6846L13.5947 21.4463C13.4091 21.4854 13.2822 21.4072 13.2431 21.251L12.4716 18.1748C12.413 17.9307 12.4814 17.8428 12.6767 17.7647L19.6982 14.7666C21.0068 15.46 22.2764 15.8115 23.8193 15.8115C25.3623 15.8115 26.6221 15.46 27.9404 14.7666L34.9619 17.7647C35.1475 17.8428 35.2256 17.9307 35.167 18.1748L34.3857 21.251C34.3467 21.4072 34.2295 21.4854 34.0439 21.4463L30.626 20.6846C30.3525 20.626 30.1768 20.792 30.1768 21.0264L30.04 31.915C30.0303 32.7158 29.5518 33.2041 28.7607 33.2041H18.8779ZM23.8193 18.7412C26.124 18.7412 28.165 17.1006 28.5947 14.835L27.1689 14.21C26.9639 15.9385 25.499 17.2373 23.8193 17.2373C22.1299 17.2373 20.6748 15.9385 20.4697 14.21L19.0439 14.835C19.4638 17.1006 21.5049 18.7412 23.8193 18.7412Z" fill="#282D2E"/>
</svg>

