<svg width="48" height="48" viewBox="0 0 48 48" fill="none" xmlns="http://www.w3.org/2000/svg">
<rect x="0.5" y="0.5" width="47" height="47" rx="23.5" stroke="#282D2E"/>
<g clip-path="url(#clip0_23_263)">
<path d="M23.1846 18.1357C21.3194 17.0517 19.5908 17.1982 18.165 19.0537C17.042 20.4892 15.8897 21.1045 14.6982 21.1045C13.6436 21.1045 12.9209 20.9384 12.1397 20.5771C10.6357 19.9228 9.00488 20.5967 9.00488 22.3838V26.7588C9.00488 30.04 10.9775 30.9385 12.8623 30.9385H28.3994C31.5342 30.9385 33.3506 30.4599 35.8018 29.1025C37.7354 28.0185 38.6338 26.6806 38.6338 25.1377C38.6338 22.9111 37.0811 21.3877 34.7959 21.3877C33.7315 21.3877 31.3389 21.7685 30.4404 21.7685C29.542 21.7685 29.3467 21.7295 28.419 21.2021L23.1846 18.1357ZM10.5869 26.9736C10.5772 26.9052 10.5772 26.8369 10.5772 26.7588V22.374C10.5772 21.915 10.9678 21.7685 11.3291 21.9443C12.2861 22.3642 13.3213 22.6767 14.6982 22.6767C16.3486 22.6767 18.0381 21.7783 19.4053 20.0107C20.3721 18.7705 21.0166 18.7119 22.3838 19.5029L27.6475 22.5498C28.8291 23.2431 29.3662 23.3408 30.4404 23.3408C31.4463 23.3408 33.8487 22.9599 34.7861 22.9599C35.5674 22.9599 36.4072 23.2041 36.4072 23.917C36.4072 24.3174 35.9971 24.8545 34.9229 25.4209L33.1846 26.3193C31.8272 27.042 30.7627 27.3154 28.3994 27.3154H12.2275C11.3584 27.3154 10.8799 27.2177 10.5869 26.9736ZM10.7627 28.1553C11.1729 28.3408 11.6123 28.4092 12.2275 28.4092H28.3994C30.8604 28.4092 32.1592 28.0771 33.7022 27.2666L35.4404 26.3877C36.4854 25.831 36.8565 25.4404 36.9932 24.7666C37.0225 24.9326 37.0322 25.1181 37.0322 25.3037C36.9834 26.2607 36.3779 26.9931 35.0401 27.7353C32.8135 28.9756 31.3291 29.3662 28.3994 29.3662H12.8525C11.8174 29.3662 11.0752 29.122 10.7627 28.1553ZM23.2529 19.1806L21.5244 21.5537C21.3487 21.7881 21.3682 22.1396 21.6026 22.3154C21.8272 22.5009 22.1885 22.4814 22.3643 22.247L24.1026 19.8642L23.2529 19.1806ZM25.4697 20.3037L23.7608 22.6474C23.5654 22.9111 23.5947 23.2236 23.8291 23.3994C24.0928 23.6142 24.4151 23.5947 24.6104 23.331L26.3096 20.9873L25.4697 20.3037ZM27.6572 21.4365L25.9873 23.7412C25.792 23.9951 25.8115 24.3174 26.0459 24.4931C26.2901 24.708 26.6221 24.6787 26.8174 24.4248L28.5069 22.1103L27.6572 21.4365Z" fill="#282D2E"/>
</g>
<defs>
<clipPath id="clip0_23_263">
<rect width="29.9902" height="13.877" fill="white" transform="translate(9.00488 17.0615)"/>
</clipPath>
</defs>
</svg>
